<?xml version="1.0" encoding="utf-8"?>
<!-- Generator: Adobe Illustrator 16.0.0, SVG Export Plug-In . SVG Version: 6.00 Build 0)  -->
<!DOCTYPE svg PUBLIC "-//W3C//DTD SVG 1.1//EN" "http://www.w3.org/Graphics/SVG/1.1/DTD/svg11.dtd">
<svg version="1.1" id="Layer_1" xmlns="http://www.w3.org/2000/svg" xmlns:xlink="http://www.w3.org/1999/xlink" x="0px" y="0px"
	 width="225px" height="225px" viewBox="0 0 225 225" enable-background="new 0 0 225 225" xml:space="preserve">
<g>
	<g enable-background="new    ">
		<path fill="#FFFFFF" d="M94.44,196.229c-0.64-0.859-1.43-1.504-2.37-1.935c-0.94-0.43-1.92-0.646-2.94-0.646
			c-1.18,0-2.265,0.24-3.255,0.721c-0.99,0.479-1.845,1.125-2.565,1.935c-0.72,0.811-1.28,1.75-1.68,2.82
			c-0.4,1.07-0.6,2.186-0.6,3.345c0,1.24,0.2,2.396,0.6,3.465c0.4,1.07,0.955,2,1.665,2.79c0.709,0.791,1.56,1.415,2.55,1.875
			c0.99,0.461,2.085,0.69,3.285,0.69c1.3,0,2.46-0.255,3.48-0.766c1.02-0.51,1.91-1.244,2.67-2.204l1.89,1.59
			c-0.96,1.28-2.115,2.22-3.465,2.819c-1.35,0.601-2.875,0.9-4.575,0.9c-1.52,0-2.94-0.28-4.26-0.84
			c-1.32-0.56-2.465-1.335-3.435-2.325c-0.97-0.99-1.73-2.165-2.28-3.525c-0.55-1.359-0.825-2.85-0.825-4.47
			c0-1.56,0.265-3.02,0.795-4.38c0.53-1.359,1.275-2.54,2.235-3.54s2.1-1.79,3.42-2.37c1.32-0.58,2.77-0.87,4.35-0.87
			c1.44,0,2.825,0.261,4.155,0.78c1.33,0.521,2.445,1.37,3.345,2.55L94.44,196.229z"/>
		<path fill="#FFFFFF" d="M110.76,195.6c-0.42-0.68-0.98-1.175-1.68-1.484c-0.7-0.311-1.43-0.466-2.19-0.466
			c-0.56,0-1.11,0.07-1.65,0.21c-0.54,0.141-1.025,0.351-1.455,0.631c-0.431,0.28-0.775,0.649-1.035,1.109
			c-0.26,0.461-0.39,1.001-0.39,1.62c0,0.48,0.075,0.905,0.225,1.275s0.395,0.705,0.735,1.005c0.34,0.3,0.8,0.58,1.38,0.84
			c0.58,0.26,1.29,0.521,2.13,0.78c0.82,0.26,1.615,0.54,2.385,0.84s1.45,0.68,2.04,1.14c0.59,0.461,1.06,1.035,1.41,1.726
			c0.349,0.689,0.525,1.555,0.525,2.595c0,1.061-0.21,1.979-0.63,2.76s-0.975,1.425-1.665,1.936c-0.69,0.51-1.485,0.89-2.385,1.14
			c-0.9,0.25-1.83,0.375-2.79,0.375c-0.62,0-1.241-0.056-1.86-0.165c-0.62-0.11-1.215-0.28-1.785-0.51
			c-0.57-0.229-1.105-0.53-1.605-0.9c-0.5-0.37-0.93-0.825-1.29-1.365l2.16-1.77c0.46,0.78,1.1,1.37,1.92,1.77
			c0.82,0.4,1.689,0.601,2.61,0.601c0.54,0,1.084-0.08,1.635-0.24c0.55-0.16,1.045-0.395,1.485-0.705
			c0.439-0.31,0.799-0.694,1.08-1.155c0.28-0.459,0.42-0.989,0.42-1.59c0-0.66-0.11-1.194-0.33-1.604
			c-0.22-0.41-0.56-0.766-1.02-1.065c-0.46-0.3-1.04-0.57-1.74-0.81c-0.7-0.24-1.52-0.521-2.46-0.84
			c-0.76-0.24-1.46-0.515-2.1-0.825s-1.195-0.69-1.665-1.141c-0.47-0.449-0.84-0.989-1.11-1.619
			c-0.27-0.631-0.405-1.385-0.405-2.266c0-1.02,0.2-1.909,0.6-2.67c0.399-0.76,0.939-1.395,1.62-1.905
			c0.68-0.51,1.45-0.895,2.31-1.154s1.76-0.391,2.7-0.391c1.2,0,2.295,0.186,3.285,0.556c0.99,0.37,1.875,1.015,2.655,1.935
			L110.76,195.6z"/>
		<path fill="#FFFFFF" d="M127.439,195.6c-0.42-0.68-0.98-1.175-1.68-1.484c-0.7-0.311-1.43-0.466-2.189-0.466
			c-0.561,0-1.11,0.07-1.65,0.21c-0.54,0.141-1.025,0.351-1.455,0.631c-0.431,0.28-0.775,0.649-1.035,1.109
			c-0.26,0.461-0.391,1.001-0.391,1.62c0,0.48,0.076,0.905,0.226,1.275s0.395,0.705,0.735,1.005c0.34,0.3,0.799,0.58,1.38,0.84
			c0.579,0.26,1.29,0.521,2.13,0.78c0.82,0.26,1.615,0.54,2.385,0.84s1.45,0.68,2.04,1.14c0.59,0.461,1.06,1.035,1.41,1.726
			c0.35,0.689,0.524,1.555,0.524,2.595c0,1.061-0.209,1.979-0.629,2.76s-0.976,1.425-1.666,1.936c-0.689,0.51-1.484,0.89-2.385,1.14
			s-1.83,0.375-2.789,0.375c-0.621,0-1.241-0.056-1.861-0.165c-0.619-0.11-1.215-0.28-1.784-0.51c-0.57-0.229-1.105-0.53-1.604-0.9
			c-0.501-0.37-0.931-0.825-1.291-1.365l2.16-1.77c0.46,0.78,1.1,1.37,1.92,1.77c0.82,0.4,1.689,0.601,2.61,0.601
			c0.54,0,1.085-0.08,1.635-0.24s1.045-0.395,1.485-0.705c0.439-0.31,0.799-0.694,1.08-1.155c0.279-0.459,0.42-0.989,0.42-1.59
			c0-0.66-0.11-1.194-0.33-1.604c-0.221-0.41-0.561-0.766-1.02-1.065c-0.461-0.3-1.041-0.57-1.74-0.81
			c-0.701-0.24-1.521-0.521-2.461-0.84c-0.76-0.24-1.459-0.515-2.1-0.825s-1.195-0.69-1.665-1.141
			c-0.47-0.449-0.84-0.989-1.11-1.619c-0.27-0.631-0.404-1.385-0.404-2.266c0-1.02,0.199-1.909,0.6-2.67
			c0.4-0.76,0.939-1.395,1.62-1.905c0.68-0.51,1.45-0.895,2.31-1.154c0.86-0.26,1.76-0.391,2.701-0.391
			c1.199,0,2.295,0.186,3.284,0.556c0.99,0.37,1.875,1.015,2.655,1.935L127.439,195.6z"/>
		<path fill="#FFFFFF" d="M137.52,200.85h0.78c0.521,0,1.065-0.04,1.636-0.12c0.569-0.079,1.09-0.249,1.56-0.51
			c0.47-0.26,0.859-0.635,1.17-1.125c0.31-0.489,0.465-1.135,0.465-1.935c0-1.08-0.335-1.936-1.005-2.565s-1.545-0.945-2.625-0.945
			c-0.9,0-1.68,0.2-2.34,0.601s-1.181,0.99-1.561,1.77l-2.43-0.93c0.52-1.2,1.335-2.1,2.445-2.7c1.109-0.6,2.344-0.899,3.705-0.899
			c0.84,0,1.645,0.119,2.414,0.359s1.445,0.591,2.025,1.05c0.58,0.461,1.04,1.035,1.381,1.726c0.34,0.689,0.51,1.495,0.51,2.415
			c0,1.12-0.336,2.125-1.006,3.015c-0.67,0.891-1.545,1.505-2.625,1.845v0.061c0.68,0.12,1.285,0.34,1.815,0.66
			s0.985,0.715,1.364,1.185c0.381,0.471,0.67,1.005,0.871,1.605c0.199,0.6,0.3,1.229,0.3,1.89c0,1.021-0.19,1.91-0.57,2.67
			c-0.38,0.761-0.89,1.4-1.53,1.92c-0.641,0.521-1.385,0.91-2.234,1.17c-0.851,0.26-1.746,0.391-2.686,0.391
			c-1.619,0-3.029-0.351-4.229-1.051c-1.2-0.699-2.07-1.84-2.61-3.42l2.551-0.84c0.359,1.141,0.869,1.95,1.529,2.431
			c0.66,0.479,1.58,0.72,2.76,0.72c0.6,0,1.16-0.1,1.68-0.3c0.521-0.2,0.976-0.485,1.365-0.855c0.391-0.37,0.7-0.81,0.93-1.32
			c0.23-0.51,0.346-1.074,0.346-1.694c0-0.78-0.155-1.436-0.465-1.965c-0.311-0.53-0.721-0.95-1.23-1.261
			c-0.51-0.31-1.085-0.534-1.725-0.675c-0.641-0.14-1.29-0.21-1.95-0.21h-0.78V200.85z"/>
	</g>
	<path fill="#FFFFFF" d="M46.369,0.146L58.404,135.15l54.014,14.994l54.164-15.017L178.631,0.146H46.369z M150.932,61.256
		l-0.404,4.446l-3.891,43.592l-0.25,2.797l-33.887,9.392v0.002l-0.076,0.021l-33.918-9.415l-2.32-25.998h7.662h8.959l1.18,13.205
		l18.441,4.98l0.014-0.005v-0.001l18.469-4.984l1.922-21.475H112.5h-0.059H75.447l-1.484-16.558h38.479h0.059h21.769l1.506-16.956
		H112.5h-0.059H72.486L70.98,27.742h41.461h0.059h41.42L150.932,61.256z"/>
</g>
</svg>
