<?xml version="1.0" encoding="utf-8"?>
<!-- Generator: Adobe Illustrator 16.0.0, SVG Export Plug-In . SVG Version: 6.00 Build 0)  -->
<!DOCTYPE svg PUBLIC "-//W3C//DTD SVG 1.1//EN" "http://www.w3.org/Graphics/SVG/1.1/DTD/svg11.dtd">
<svg version="1.1" id="Layer_1" xmlns="http://www.w3.org/2000/svg" xmlns:xlink="http://www.w3.org/1999/xlink" x="0px" y="0px"
	 width="225px" height="225px" viewBox="0 0 225 225" enable-background="new 0 0 225 225" xml:space="preserve">
<g>
	<g enable-background="new    ">
		<path fill="#FFFFFF" d="M68.301,191.85h8.16c0.7,0,1.44,0.08,2.22,0.24c0.78,0.16,1.555,0.415,2.325,0.765
			c0.77,0.351,1.51,0.806,2.22,1.365c0.71,0.561,1.335,1.235,1.875,2.025s0.97,1.7,1.29,2.729c0.32,1.03,0.48,2.195,0.48,3.495
			c0,1.301-0.16,2.465-0.48,3.495s-0.75,1.94-1.29,2.73s-1.165,1.465-1.875,2.024c-0.71,0.561-1.45,1.016-2.22,1.365
			c-0.77,0.35-1.545,0.605-2.325,0.765c-0.78,0.16-1.52,0.24-2.22,0.24h-8.16V191.85z M70.821,210.75h4.8
			c1.22,0,2.35-0.16,3.39-0.48c1.04-0.319,1.94-0.814,2.7-1.484c0.76-0.67,1.36-1.525,1.8-2.565s0.66-2.29,0.66-3.75
			s-0.22-2.71-0.66-3.75s-1.04-1.895-1.8-2.564c-0.76-0.67-1.661-1.165-2.7-1.485c-1.04-0.319-2.17-0.48-3.39-0.48h-4.8V210.75z"/>
		<path fill="#FFFFFF" d="M103.041,210.54c-0.84,1.08-1.76,1.835-2.76,2.265c-1,0.43-2.16,0.646-3.48,0.646
			c-1.1,0-2.09-0.195-2.97-0.585c-0.88-0.391-1.625-0.915-2.235-1.575c-0.61-0.66-1.08-1.44-1.41-2.34
			c-0.33-0.9-0.495-1.86-0.495-2.88c0-1.08,0.18-2.075,0.54-2.985c0.36-0.91,0.859-1.69,1.5-2.34c0.64-0.65,1.399-1.155,2.28-1.516
			c0.88-0.359,1.84-0.54,2.88-0.54c0.98,0,1.88,0.165,2.7,0.495c0.82,0.33,1.525,0.811,2.115,1.44s1.045,1.4,1.365,2.31
			c0.32,0.91,0.48,1.945,0.48,3.105v0.75h-11.34c0.04,0.6,0.185,1.175,0.435,1.725c0.25,0.551,0.574,1.03,0.975,1.44
			c0.4,0.41,0.87,0.734,1.41,0.975s1.13,0.36,1.77,0.36c1.02,0,1.88-0.181,2.58-0.54c0.7-0.36,1.33-0.89,1.89-1.59L103.041,210.54z
			 M101.031,204.81c-0.041-1.2-0.43-2.16-1.17-2.88c-0.74-0.72-1.76-1.08-3.06-1.08c-1.3,0-2.35,0.36-3.15,1.08
			c-0.8,0.72-1.28,1.68-1.44,2.88H101.031z"/>
		<path fill="#FFFFFF" d="M107.481,209.399c0.46,0.581,0.965,1.041,1.515,1.381c0.55,0.34,1.245,0.51,2.085,0.51
			c0.36,0,0.725-0.04,1.095-0.12s0.705-0.21,1.006-0.39c0.299-0.181,0.539-0.405,0.719-0.676c0.181-0.27,0.271-0.595,0.271-0.975
			s-0.085-0.69-0.255-0.93c-0.17-0.24-0.395-0.445-0.676-0.615c-0.28-0.17-0.599-0.305-0.959-0.405c-0.36-0.1-0.73-0.189-1.11-0.27
			c-0.66-0.14-1.29-0.301-1.89-0.48c-0.6-0.18-1.125-0.415-1.575-0.705c-0.45-0.289-0.81-0.664-1.08-1.125
			c-0.27-0.46-0.405-1.05-0.405-1.77c0-0.68,0.15-1.28,0.45-1.8c0.3-0.521,0.7-0.95,1.2-1.29c0.5-0.34,1.06-0.601,1.68-0.78
			c0.62-0.18,1.26-0.271,1.92-0.271c1,0,1.925,0.2,2.775,0.601c0.85,0.4,1.515,1.05,1.994,1.95l-1.949,1.29
			c-0.301-0.5-0.695-0.905-1.186-1.216c-0.49-0.31-1.084-0.465-1.785-0.465c-0.32,0-0.645,0.041-0.975,0.12
			c-0.33,0.08-0.625,0.2-0.885,0.36c-0.26,0.16-0.475,0.365-0.645,0.615s-0.255,0.535-0.255,0.854c0,0.3,0.095,0.555,0.285,0.765
			s0.45,0.396,0.78,0.556s0.709,0.3,1.14,0.42c0.43,0.12,0.875,0.22,1.335,0.3c0.62,0.12,1.209,0.275,1.77,0.465
			c0.56,0.19,1.05,0.445,1.47,0.766c0.42,0.319,0.75,0.72,0.99,1.199c0.239,0.48,0.36,1.07,0.36,1.771c0,0.8-0.16,1.48-0.48,2.04
			s-0.745,1.015-1.275,1.365c-0.529,0.35-1.13,0.604-1.8,0.765s-1.355,0.24-2.055,0.24c-1.2,0-2.235-0.186-3.105-0.556
			c-0.87-0.369-1.655-1.055-2.355-2.055L107.481,209.399z"/>
		<path fill="#FFFFFF" d="M119.631,193.56c0-0.46,0.165-0.859,0.494-1.2c0.33-0.34,0.736-0.51,1.216-0.51s0.885,0.17,1.215,0.51
			c0.33,0.341,0.495,0.74,0.495,1.2c0,0.5-0.16,0.91-0.48,1.23s-0.73,0.479-1.229,0.479c-0.501,0-0.911-0.159-1.229-0.479
			C119.791,194.47,119.631,194.06,119.631,193.56z M120.171,199.05h2.34v14.04h-2.34V199.05z"/>
		<path fill="#FFFFFF" d="M141.17,212.46c0,2.56-0.654,4.505-1.965,5.835c-1.31,1.33-3.205,1.995-5.685,1.995
			c-1.38,0-2.625-0.2-3.735-0.601c-1.109-0.4-2.165-1.09-3.164-2.069l1.68-1.92c0.739,0.8,1.524,1.404,2.354,1.814
			s1.785,0.615,2.865,0.615c1.04,0,1.905-0.155,2.595-0.465c0.69-0.311,1.234-0.73,1.635-1.26c0.4-0.53,0.68-1.136,0.84-1.815
			s0.24-1.391,0.24-2.13v-1.8h-0.06c-0.56,0.899-1.29,1.56-2.19,1.979c-0.899,0.42-1.82,0.63-2.76,0.63c-1.1,0-2.11-0.18-3.029-0.54
			c-0.921-0.359-1.711-0.859-2.371-1.5c-0.66-0.64-1.17-1.399-1.529-2.279c-0.36-0.88-0.54-1.84-0.54-2.88
			c0-1.141,0.18-2.17,0.54-3.091c0.359-0.919,0.865-1.694,1.515-2.324c0.649-0.631,1.435-1.115,2.354-1.455s1.94-0.511,3.061-0.511
			c0.48,0,0.96,0.056,1.439,0.165c0.48,0.11,0.945,0.28,1.396,0.511c0.45,0.229,0.854,0.52,1.216,0.869
			c0.359,0.351,0.659,0.756,0.899,1.216h0.06v-2.4h2.34V212.46z M128.871,206.07c0,0.72,0.129,1.385,0.389,1.994
			c0.26,0.61,0.615,1.141,1.065,1.591c0.45,0.449,0.976,0.805,1.575,1.064c0.6,0.261,1.24,0.39,1.92,0.39c0.8,0,1.51-0.14,2.13-0.42
			c0.62-0.279,1.146-0.654,1.575-1.125c0.43-0.47,0.755-1.01,0.975-1.619c0.221-0.61,0.33-1.255,0.33-1.936
			c0-0.76-0.119-1.455-0.359-2.085s-0.58-1.175-1.021-1.635s-0.97-0.814-1.59-1.065c-0.62-0.25-1.3-0.375-2.04-0.375
			s-1.415,0.135-2.025,0.405c-0.609,0.27-1.13,0.641-1.56,1.11c-0.431,0.47-0.765,1.02-1.005,1.649S128.871,205.33,128.871,206.07z"
			/>
		<path fill="#FFFFFF" d="M145.49,202.38c0-0.64-0.021-1.24-0.061-1.8s-0.06-1.07-0.06-1.53h2.22c0,0.38,0.01,0.761,0.03,1.14
			c0.02,0.381,0.03,0.771,0.03,1.17h0.06c0.159-0.34,0.385-0.669,0.675-0.989s0.635-0.604,1.035-0.855c0.4-0.25,0.85-0.45,1.35-0.6
			c0.5-0.15,1.04-0.226,1.621-0.226c0.919,0,1.714,0.141,2.385,0.42c0.67,0.281,1.225,0.671,1.664,1.171
			c0.44,0.5,0.766,1.104,0.976,1.814s0.315,1.485,0.315,2.325v8.67h-2.34v-8.43c0-1.18-0.261-2.11-0.781-2.79
			c-0.52-0.68-1.33-1.021-2.43-1.021c-0.76,0-1.415,0.131-1.965,0.391c-0.551,0.26-1,0.63-1.35,1.109
			c-0.351,0.48-0.61,1.05-0.78,1.71s-0.255,1.391-0.255,2.19v6.84h-2.34V202.38z"/>
	</g>
	<g>
		<g>
			<polygon fill="#FFFFFF" points="160.314,0.41 177.402,16.914 168.384,25.621 151.297,9.12 			"/>
			<path fill="#FFFFFF" d="M108.189,63.717l17.899-17.287c-0.461-1.668-0.02-3.519,1.336-4.826c2.021-1.954,5.301-1.953,7.323,0
				s2.022,5.119,0,7.072c-1.354,1.307-3.271,1.734-4.998,1.289L111.85,67.252l39.446-14.521c0,0-0.608-12.769,11.899-25.046
				L149.16,14.128c-12.206,11.789-25.938,11.492-25.938,11.492L108.189,63.717z"/>
		</g>
		<ellipse fill="#FFFFFF" cx="44.075" cy="70.146" rx="6.575" ry="6.349"/>
		<ellipse fill="#FFFFFF" cx="129.525" cy="144.061" rx="6.574" ry="6.35"/>
		<g>
			<path fill="#FFFFFF" d="M142.562,115.242l-0.291,2.918c-0.633,3.986-3.151,8.953-7.504,14.764c2.27,0.75,4.168,2.262,5.377,4.221
				c4.666-6.178,7.539-11.641,8.666-16.459C147.52,119.869,143.667,116.281,142.562,115.242z"/>
			<path fill="#FFFFFF" d="M120.79,96.555c-9.567-1.42-20.557-1.917-31.403-2.398c-19.08-0.85-40.706-1.812-44.426-8.424
				c-0.59-1.05-0.687-2.372-0.3-3.951c-0.195,0.012-0.389,0.03-0.586,0.03c-2.267,0-4.354-0.739-6.036-1.969
				c-0.926,3.39-0.651,6.431,0.84,9.08c5.584,9.924,26.255,10.843,50.189,11.911c14.927,0.662,31.157,1.391,41.75,4.64
				C127.324,102.677,123.941,99.75,120.79,96.555z"/>
		</g>
		<path fill="#FFFFFF" d="M182.309,132.912c-0.947,0-1.824,0.264-2.59,0.693l-30.97-25.39c0.396-0.815,0.622-1.722,0.622-2.682
			c0-3.508-2.943-6.353-6.575-6.353c-1.378,0-2.655,0.411-3.713,1.111l-30.961-25.38c0.218-0.553,0.351-1.146,0.351-1.771
			c0-2.768-2.324-5.014-5.19-5.014c-2.867,0-5.191,2.246-5.191,5.014s2.324,5.013,5.191,5.013c0.948,0,1.825-0.265,2.59-0.692
			l30.971,25.387c-0.395,0.816-0.621,1.725-0.621,2.686c0,3.506,2.942,6.349,6.574,6.349c1.378,0,2.655-0.411,3.712-1.11
			l30.962,25.38c-0.219,0.552-0.352,1.146-0.352,1.771c0,2.771,2.324,5.015,5.189,5.015c2.867,0,5.191-2.244,5.191-5.015
			C187.5,135.156,185.176,132.912,182.309,132.912z"/>
	</g>
</g>
</svg>
