<?xml version="1.0" encoding="utf-8"?>
<!-- Generator: Adobe Illustrator 16.0.0, SVG Export Plug-In . SVG Version: 6.00 Build 0)  -->
<!DOCTYPE svg PUBLIC "-//W3C//DTD SVG 1.1//EN" "http://www.w3.org/Graphics/SVG/1.1/DTD/svg11.dtd">
<svg version="1.1" id="Layer_1" xmlns="http://www.w3.org/2000/svg" xmlns:xlink="http://www.w3.org/1999/xlink" x="0px" y="0px"
	 width="150px" height="150px" viewBox="0 0 150 150" enable-background="new 0 0 150 150" xml:space="preserve">
<g>
	<g>
		<polygon fill="#FFFFFF" points="122.814,0 139.902,16.504 130.884,25.211 113.797,8.71 		"/>
		<path fill="#FFFFFF" d="M70.689,63.307L88.589,46.02c-0.461-1.668-0.019-3.519,1.336-4.826c2.022-1.954,5.301-1.953,7.323,0
			s2.022,5.119,0,7.072c-1.354,1.307-3.271,1.734-4.998,1.289L74.351,66.842l39.446-14.521c0,0-0.608-12.769,11.9-25.046
			l-14.036-13.557C99.455,25.508,85.725,25.211,85.725,25.211L70.689,63.307z"/>
	</g>
	<ellipse fill="#FFFFFF" cx="6.575" cy="69.735" rx="6.575" ry="6.349"/>
	<ellipse fill="#FFFFFF" cx="92.025" cy="143.65" rx="6.575" ry="6.35"/>
	<g>
		<path fill="#FFFFFF" d="M105.062,114.832l-0.29,2.918c-0.634,3.986-3.152,8.953-7.504,14.764c2.269,0.75,4.167,2.262,5.377,4.221
			c4.666-6.178,7.538-11.641,8.666-16.459C110.02,119.459,106.167,115.871,105.062,114.832z"/>
		<path fill="#FFFFFF" d="M83.29,96.145c-9.567-1.42-20.557-1.916-31.403-2.398c-19.08-0.85-40.706-1.812-44.426-8.424
			c-0.59-1.049-0.687-2.371-0.3-3.951c-0.195,0.012-0.389,0.031-0.586,0.031c-2.267,0-4.354-0.74-6.036-1.969
			c-0.926,3.389-0.651,6.43,0.84,9.08c5.584,9.924,26.255,10.842,50.189,11.91c14.927,0.662,31.156,1.391,41.751,4.641
			C89.824,102.268,86.442,99.34,83.29,96.145z"/>
	</g>
	<path fill="#FFFFFF" d="M144.809,132.502c-0.948,0-1.825,0.264-2.59,0.693l-30.97-25.389c0.395-0.814,0.622-1.721,0.622-2.682
		c0-3.508-2.943-6.352-6.575-6.352c-1.378,0-2.656,0.41-3.713,1.111L70.622,74.504c0.218-0.553,0.351-1.146,0.351-1.771
		c0-2.768-2.324-5.014-5.19-5.014c-2.867,0-5.191,2.246-5.191,5.014s2.324,5.014,5.191,5.014c0.948,0,1.825-0.266,2.59-0.693
		l30.971,25.387c-0.395,0.816-0.622,1.725-0.622,2.686c0,3.506,2.943,6.35,6.575,6.35c1.378,0,2.655-0.412,3.712-1.111
		l30.961,25.381c-0.218,0.551-0.351,1.145-0.351,1.77c0,2.77,2.324,5.014,5.19,5.014c2.867,0,5.191-2.244,5.191-5.014
		C150,134.746,147.676,132.502,144.809,132.502z"/>
</g>
</svg>
