<?xml version="1.0" encoding="utf-8"?>
<!-- Generator: Adobe Illustrator 16.0.0, SVG Export Plug-In . SVG Version: 6.00 Build 0)  -->
<!DOCTYPE svg PUBLIC "-//W3C//DTD SVG 1.1//EN" "http://www.w3.org/Graphics/SVG/1.1/DTD/svg11.dtd">
<svg version="1.1" id="Layer_1" xmlns="http://www.w3.org/2000/svg" xmlns:xlink="http://www.w3.org/1999/xlink" x="0px" y="0px"
	 width="225px" height="225px" viewBox="0 0 225 225" enable-background="new 0 0 225 225" xml:space="preserve">
<g>
	<g enable-background="new    ">
		<path fill="#FFFFFF" d="M69.465,191.85h8.16c0.7,0,1.44,0.08,2.22,0.24c0.78,0.16,1.555,0.415,2.325,0.765
			c0.77,0.351,1.51,0.806,2.22,1.365c0.71,0.561,1.335,1.235,1.875,2.025s0.97,1.7,1.29,2.729c0.32,1.03,0.48,2.195,0.48,3.495
			c0,1.301-0.16,2.465-0.48,3.495s-0.75,1.94-1.29,2.73s-1.165,1.465-1.875,2.024c-0.71,0.561-1.45,1.016-2.22,1.365
			c-0.77,0.35-1.545,0.605-2.325,0.765c-0.78,0.16-1.52,0.24-2.22,0.24h-8.16V191.85z M71.985,210.75h4.8
			c1.22,0,2.35-0.16,3.39-0.48c1.04-0.319,1.94-0.814,2.7-1.484c0.76-0.67,1.36-1.525,1.8-2.565s0.66-2.29,0.66-3.75
			s-0.22-2.71-0.66-3.75s-1.04-1.895-1.8-2.564c-0.76-0.67-1.661-1.165-2.7-1.485c-1.04-0.319-2.17-0.48-3.39-0.48h-4.8V210.75z"/>
		<path fill="#FFFFFF" d="M91.666,202.38c0-0.64-0.021-1.24-0.06-1.8c-0.041-0.56-0.06-1.07-0.06-1.53h2.22
			c0,0.38,0.01,0.761,0.03,1.14c0.02,0.381,0.03,0.771,0.03,1.17h0.06c0.16-0.34,0.385-0.669,0.675-0.989
			c0.29-0.32,0.634-0.604,1.035-0.855c0.4-0.25,0.85-0.45,1.35-0.6c0.5-0.15,1.04-0.226,1.62-0.226c0.16,0,0.319,0.011,0.48,0.03
			c0.16,0.021,0.32,0.061,0.48,0.12l-0.15,2.37c-0.4-0.12-0.82-0.18-1.26-0.18c-1.44,0-2.485,0.465-3.135,1.395
			c-0.65,0.93-0.975,2.205-0.975,3.825v6.84h-2.34V202.38z"/>
		<path fill="#FFFFFF" d="M114.465,209.76c0,0.641,0.02,1.24,0.061,1.8c0.039,0.561,0.06,1.07,0.06,1.53h-2.22
			c0-0.38-0.01-0.76-0.03-1.14c-0.02-0.38-0.03-0.771-0.03-1.17h-0.06c-0.161,0.34-0.386,0.67-0.675,0.989
			c-0.29,0.32-0.635,0.605-1.035,0.855s-0.85,0.45-1.35,0.6c-0.5,0.15-1.041,0.226-1.62,0.226c-0.92,0-1.715-0.141-2.385-0.42
			c-0.67-0.28-1.225-0.67-1.665-1.171c-0.44-0.499-0.765-1.104-0.975-1.814s-0.315-1.485-0.315-2.325v-8.67h2.34v8.43
			c0,1.181,0.26,2.11,0.78,2.79c0.52,0.681,1.33,1.021,2.43,1.021c0.76,0,1.415-0.13,1.965-0.391c0.55-0.259,1-0.63,1.35-1.109
			c0.35-0.48,0.61-1.05,0.78-1.71c0.169-0.66,0.255-1.39,0.255-2.19v-6.84h2.34V209.76z"/>
		<path fill="#FFFFFF" d="M118.785,199.05h2.34v2.04h0.061c0.639-0.76,1.385-1.35,2.234-1.77c0.85-0.421,1.785-0.631,2.805-0.631
			c1.1,0,2.105,0.186,3.016,0.556s1.685,0.885,2.324,1.545c0.641,0.66,1.141,1.439,1.5,2.34c0.361,0.9,0.541,1.88,0.541,2.94
			c0,1.06-0.18,2.039-0.541,2.939c-0.359,0.9-0.854,1.68-1.484,2.34s-1.375,1.176-2.234,1.545c-0.861,0.37-1.781,0.556-2.761,0.556
			c-1.26,0-2.365-0.275-3.315-0.825c-0.949-0.55-1.645-1.225-2.084-2.025h-0.061v9.33h-2.34V199.05z M121.125,206.07
			c0,0.739,0.115,1.425,0.346,2.055c0.229,0.63,0.564,1.18,1.004,1.649c0.439,0.471,0.965,0.841,1.576,1.11
			c0.609,0.271,1.294,0.405,2.055,0.405c0.76,0,1.444-0.135,2.055-0.405c0.609-0.27,1.135-0.64,1.574-1.11
			c0.44-0.47,0.775-1.02,1.006-1.649c0.229-0.63,0.345-1.315,0.345-2.055c0-0.74-0.115-1.426-0.345-2.056
			c-0.23-0.63-0.565-1.18-1.006-1.649c-0.439-0.47-0.965-0.841-1.574-1.11c-0.61-0.271-1.295-0.405-2.055-0.405
			c-0.761,0-1.445,0.135-2.055,0.405c-0.611,0.27-1.137,0.641-1.576,1.11s-0.775,1.02-1.004,1.649
			C121.24,204.645,121.125,205.33,121.125,206.07z"/>
		<path fill="#FFFFFF" d="M137.055,200.85c0.72-0.739,1.575-1.284,2.564-1.635c0.99-0.35,1.996-0.525,3.016-0.525
			c2.08,0,3.58,0.49,4.5,1.471c0.92,0.979,1.38,2.47,1.38,4.47v6.03c0,0.4,0.02,0.814,0.06,1.245c0.04,0.43,0.09,0.824,0.15,1.185
			h-2.25c-0.08-0.319-0.125-0.675-0.135-1.065c-0.011-0.39-0.016-0.734-0.016-1.034h-0.06c-0.46,0.72-1.075,1.31-1.845,1.77
			c-0.771,0.46-1.695,0.69-2.775,0.69c-0.72,0-1.395-0.091-2.025-0.271c-0.629-0.18-1.18-0.444-1.649-0.795
			c-0.47-0.35-0.845-0.784-1.125-1.305s-0.42-1.12-0.42-1.8c0-1.16,0.3-2.07,0.899-2.73c0.601-0.66,1.346-1.149,2.235-1.47
			s1.85-0.521,2.88-0.601c1.03-0.079,1.975-0.12,2.835-0.12h0.9v-0.42c0-1.02-0.306-1.789-0.915-2.31
			c-0.61-0.52-1.465-0.78-2.564-0.78c-0.761,0-1.506,0.125-2.236,0.375c-0.729,0.251-1.375,0.636-1.935,1.155L137.055,200.85z
			 M143.834,206.34c-1.5,0-2.689,0.21-3.569,0.63s-1.319,1.11-1.319,2.07c0,0.88,0.294,1.505,0.885,1.875
			c0.59,0.37,1.324,0.555,2.205,0.555c0.68,0,1.274-0.114,1.785-0.345c0.51-0.229,0.934-0.535,1.274-0.915
			c0.34-0.38,0.601-0.825,0.78-1.335s0.279-1.055,0.3-1.635v-0.9H143.834z"/>
		<path fill="#FFFFFF" d="M153.015,190.41h2.34v22.68h-2.34V190.41z"/>
	</g>
	<path fill="#FFFFFF" d="M145.172,28.049c-0.126-0.079-0.252-0.154-0.378-0.231c-6.556-4.087-13.002-6.042-19.337-9.704
		c-0.798-0.465-1.596-0.953-2.393-1.48C118.585,13.6,112.372,6.375,107.17,0.161c-0.001,0.007-0.001,0.013-0.002,0.02
		c-0.01-0.012-0.021-0.024-0.03-0.036c-0.312,3.067-0.801,5.587-1.435,7.687c-1.329,4.27-3.268,6.77-5.418,8.692
		c-0.218,0.182-0.438,0.356-0.661,0.526c-7.369,5.779-11.993,7.514-18.351,10.982c-0.539,0.291-1.322,0.73-2.288,1.318
		c-3.838,2.302-10.584,7.007-16.903,14.458c-7.933,9.319-15.198,22.94-15.198,41.586c0,11.902,3.197,22.805,8.682,32.129h0.023
		c11.691,19.891,33.794,32.619,57.507,32.619c34.821,0,65.021-25.287,65.021-63.578C178.116,48.277,149.796,30.938,145.172,28.049z
		 M146.007,136.547c-0.723,0.723-7.368,5.346-15.172,6.068c-7.803,0.722-18.351,1.156-24.709-4.623
		c-1.011-1.012-0.722-2.457,0-3.035c0.723-0.578,1.301-1.012,2.168-1.012c0.866,0,0.723,0,1.155,0.289
		c2.891,2.312,7.225,4.19,16.473,4.19s15.75-2.602,18.641-4.771c1.301-1.012,1.877-0.145,2.021,0.435
		S147.018,135.535,146.007,136.547z M120.721,123.398c1.59-1.445,4.189-3.756,6.646-4.769c2.456-1.012,3.757-0.866,6.068-0.866
		c2.311,0,4.769,0.145,6.502,1.301s2.746,3.756,3.322,5.199c0.578,1.444,0,2.312-1.154,2.891c-1.013,0.578-1.156,0.289-2.168-1.59
		c-1.012-1.877-1.879-3.754-6.937-3.754s-6.646,1.731-9.103,3.754s-3.324,2.746-4.19,1.59S119.131,124.842,120.721,123.398z
		 M159.012,124.553c-5.201-0.434-15.605-16.616-22.253-16.905c-8.381-0.289-26.587,17.483-40.892,17.483
		c-8.67,0-11.271-1.301-14.16-3.178c-4.335-3.033-6.502-7.656-6.357-14.016c0.145-11.27,10.692-21.818,23.985-21.963
		c16.906-0.145,28.608,16.762,37.136,16.617c7.225-0.145,21.096-14.305,27.887-14.305c7.226,0,9.248,7.514,9.248,11.992
		c0,4.48-1.444,12.572-4.912,17.629C165.225,122.965,163.057,124.842,159.012,124.553z"/>
</g>
</svg>
