<?xml version="1.0" encoding="utf-8"?>
<!-- Generator: Adobe Illustrator 16.0.0, SVG Export Plug-In . SVG Version: 6.00 Build 0)  -->
<!DOCTYPE svg PUBLIC "-//W3C//DTD SVG 1.1//EN" "http://www.w3.org/Graphics/SVG/1.1/DTD/svg11.dtd">
<svg version="1.1" id="Layer_1" xmlns="http://www.w3.org/2000/svg" xmlns:xlink="http://www.w3.org/1999/xlink" x="0px" y="0px"
	 width="225px" height="225px" viewBox="0 0 225 225" enable-background="new 0 0 225 225" xml:space="preserve">
<g>
	<g enable-background="new    ">
		<path fill="#FFFFFF" d="M41.491,211.649c-1.22,0.681-2.505,1.181-3.855,1.5c-1.35,0.32-2.715,0.48-4.095,0.48
			c-1.66,0-3.18-0.271-4.56-0.81c-1.38-0.54-2.575-1.301-3.585-2.28c-1.01-0.979-1.795-2.155-2.355-3.525
			c-0.56-1.369-0.84-2.885-0.84-4.545c0-1.68,0.295-3.205,0.885-4.575c0.59-1.369,1.405-2.539,2.445-3.51
			c1.04-0.97,2.25-1.725,3.63-2.265s2.87-0.811,4.47-0.811c1.4,0,2.745,0.21,4.035,0.63s2.445,1.141,3.465,2.16l-1.89,1.98
			c-0.72-0.78-1.595-1.38-2.625-1.8c-1.03-0.421-2.085-0.631-3.165-0.631c-1.22,0-2.351,0.221-3.39,0.66
			c-1.04,0.44-1.945,1.05-2.715,1.83c-0.771,0.78-1.37,1.71-1.8,2.79s-0.645,2.261-0.645,3.54c0,1.26,0.215,2.43,0.645,3.51
			s1.03,2.016,1.8,2.806c0.77,0.79,1.695,1.405,2.775,1.845c1.08,0.44,2.27,0.66,3.57,0.66c0.86,0,1.76-0.105,2.7-0.315
			c0.94-0.21,1.8-0.515,2.58-0.915v-6.51h-4.89v-2.34h7.41V211.649z"/>
		<path fill="#FFFFFF" d="M45.541,206.07c0-1.101,0.189-2.101,0.57-3c0.38-0.9,0.9-1.676,1.56-2.325
			c0.66-0.65,1.45-1.155,2.37-1.516c0.919-0.359,1.92-0.54,3-0.54s2.08,0.181,3,0.54c0.919,0.36,1.71,0.865,2.37,1.516
			c0.66,0.649,1.18,1.425,1.56,2.325c0.38,0.899,0.57,1.899,0.57,3c0,1.1-0.19,2.1-0.57,3c-0.38,0.899-0.9,1.675-1.56,2.324
			c-0.66,0.65-1.45,1.155-2.37,1.516c-0.92,0.359-1.92,0.54-3,0.54s-2.081-0.181-3-0.54c-0.92-0.36-1.71-0.865-2.37-1.516
			c-0.66-0.649-1.18-1.425-1.56-2.324C45.73,208.17,45.541,207.17,45.541,206.07z M48.061,206.07c0,0.739,0.115,1.425,0.345,2.055
			s0.565,1.18,1.005,1.649c0.44,0.471,0.965,0.841,1.575,1.11c0.61,0.271,1.295,0.405,2.055,0.405c0.76,0,1.444-0.135,2.055-0.405
			c0.61-0.27,1.135-0.64,1.575-1.11c0.439-0.47,0.775-1.02,1.005-1.649s0.345-1.315,0.345-2.055c0-0.74-0.115-1.426-0.345-2.056
			s-0.565-1.18-1.005-1.649c-0.44-0.47-0.965-0.841-1.575-1.11c-0.61-0.271-1.295-0.405-2.055-0.405
			c-0.76,0-1.445,0.135-2.055,0.405c-0.61,0.27-1.135,0.641-1.575,1.11s-0.775,1.02-1.005,1.649S48.061,205.33,48.061,206.07z"/>
		<path fill="#FFFFFF" d="M63.36,206.07c0-1.101,0.189-2.101,0.57-3c0.38-0.9,0.9-1.676,1.56-2.325c0.66-0.65,1.45-1.155,2.37-1.516
			c0.919-0.359,1.92-0.54,3-0.54s2.08,0.181,3,0.54c0.919,0.36,1.71,0.865,2.37,1.516c0.66,0.649,1.18,1.425,1.56,2.325
			c0.38,0.899,0.57,1.899,0.57,3c0,1.1-0.19,2.1-0.57,3c-0.38,0.899-0.9,1.675-1.56,2.324c-0.66,0.65-1.45,1.155-2.37,1.516
			c-0.92,0.359-1.92,0.54-3,0.54s-2.081-0.181-3-0.54c-0.92-0.36-1.71-0.865-2.37-1.516c-0.66-0.649-1.18-1.425-1.56-2.324
			C63.55,208.17,63.36,207.17,63.36,206.07z M65.88,206.07c0,0.739,0.115,1.425,0.345,2.055s0.565,1.18,1.005,1.649
			c0.44,0.471,0.965,0.841,1.575,1.11c0.61,0.271,1.295,0.405,2.055,0.405c0.76,0,1.444-0.135,2.055-0.405
			c0.61-0.27,1.135-0.64,1.575-1.11c0.439-0.47,0.775-1.02,1.005-1.649s0.345-1.315,0.345-2.055c0-0.74-0.115-1.426-0.345-2.056
			s-0.565-1.18-1.005-1.649c-0.44-0.47-0.965-0.841-1.575-1.11c-0.61-0.271-1.295-0.405-2.055-0.405
			c-0.76,0-1.445,0.135-2.055,0.405c-0.61,0.27-1.135,0.641-1.575,1.11s-0.775,1.02-1.005,1.649S65.88,205.33,65.88,206.07z"/>
		<path fill="#FFFFFF" d="M96,212.46c0,2.56-0.655,4.505-1.965,5.835c-1.31,1.33-3.206,1.995-5.685,1.995
			c-1.38,0-2.625-0.2-3.735-0.601c-1.11-0.4-2.166-1.09-3.165-2.069l1.68-1.92c0.74,0.8,1.525,1.404,2.355,1.814
			s1.785,0.615,2.865,0.615c1.04,0,1.905-0.155,2.595-0.465c0.69-0.311,1.235-0.73,1.635-1.26c0.4-0.53,0.68-1.136,0.84-1.815
			s0.24-1.391,0.24-2.13v-1.8H93.6c-0.56,0.899-1.29,1.56-2.19,1.979s-1.82,0.63-2.76,0.63c-1.1,0-2.11-0.18-3.03-0.54
			c-0.92-0.359-1.71-0.859-2.37-1.5c-0.66-0.64-1.17-1.399-1.53-2.279c-0.36-0.88-0.54-1.84-0.54-2.88c0-1.141,0.18-2.17,0.54-3.091
			c0.36-0.919,0.865-1.694,1.515-2.324c0.65-0.631,1.435-1.115,2.355-1.455s1.94-0.511,3.06-0.511c0.48,0,0.96,0.056,1.44,0.165
			c0.48,0.11,0.945,0.28,1.395,0.511c0.45,0.229,0.855,0.52,1.215,0.869c0.36,0.351,0.66,0.756,0.9,1.216h0.06v-2.4H96V212.46z
			 M83.7,206.07c0,0.72,0.13,1.385,0.39,1.994c0.26,0.61,0.615,1.141,1.065,1.591c0.45,0.449,0.975,0.805,1.575,1.064
			c0.6,0.261,1.24,0.39,1.92,0.39c0.8,0,1.51-0.14,2.13-0.42c0.62-0.279,1.145-0.654,1.575-1.125c0.43-0.47,0.755-1.01,0.975-1.619
			c0.22-0.61,0.33-1.255,0.33-1.936c0-0.76-0.12-1.455-0.36-2.085c-0.24-0.63-0.58-1.175-1.02-1.635s-0.97-0.814-1.59-1.065
			c-0.62-0.25-1.3-0.375-2.04-0.375c-0.74,0-1.415,0.135-2.025,0.405c-0.61,0.27-1.13,0.641-1.56,1.11
			c-0.43,0.47-0.765,1.02-1.005,1.649C83.82,204.645,83.7,205.33,83.7,206.07z"/>
		<path fill="#FFFFFF" d="M100.53,190.41h2.34v22.68h-2.34V190.41z"/>
		<path fill="#FFFFFF" d="M120.06,210.54c-0.84,1.08-1.76,1.835-2.76,2.265c-1.001,0.43-2.16,0.646-3.479,0.646
			c-1.101,0-2.091-0.195-2.971-0.585c-0.88-0.391-1.625-0.915-2.235-1.575c-0.61-0.66-1.08-1.44-1.41-2.34
			c-0.33-0.9-0.495-1.86-0.495-2.88c0-1.08,0.18-2.075,0.54-2.985c0.36-0.91,0.859-1.69,1.5-2.34c0.64-0.65,1.399-1.155,2.28-1.516
			c0.88-0.359,1.84-0.54,2.88-0.54c0.979,0,1.879,0.165,2.699,0.495s1.525,0.811,2.115,1.44s1.045,1.4,1.365,2.31
			c0.32,0.91,0.48,1.945,0.48,3.105v0.75h-11.34c0.04,0.6,0.185,1.175,0.435,1.725c0.25,0.551,0.574,1.03,0.975,1.44
			c0.4,0.41,0.87,0.734,1.41,0.975s1.13,0.36,1.771,0.36c1.02,0,1.879-0.181,2.58-0.54c0.699-0.36,1.329-0.89,1.89-1.59
			L120.06,210.54z M118.05,204.81c-0.04-1.2-0.431-2.16-1.17-2.88c-0.74-0.72-1.761-1.08-3.06-1.08c-1.301,0-2.351,0.36-3.15,1.08
			c-0.8,0.72-1.28,1.68-1.44,2.88H118.05z"/>
		<path fill="#FFFFFF" d="M132.96,191.85h3.75l7.2,16.65h0.06l7.261-16.65h3.659v21.24h-2.521v-17.82h-0.059l-7.621,17.82h-1.529
			l-7.62-17.82h-0.06v17.82h-2.521V191.85z"/>
		<path fill="#FFFFFF" d="M159.57,200.85c0.719-0.739,1.574-1.284,2.564-1.635c0.99-0.35,1.995-0.525,3.016-0.525
			c2.079,0,3.579,0.49,4.5,1.471c0.919,0.979,1.379,2.47,1.379,4.47v6.03c0,0.4,0.02,0.814,0.061,1.245
			c0.039,0.43,0.09,0.824,0.15,1.185h-2.25c-0.08-0.319-0.125-0.675-0.135-1.065c-0.012-0.39-0.016-0.734-0.016-1.034h-0.061
			c-0.46,0.72-1.074,1.31-1.845,1.77s-1.694,0.69-2.774,0.69c-0.721,0-1.396-0.091-2.025-0.271s-1.18-0.444-1.65-0.795
			c-0.47-0.35-0.845-0.784-1.125-1.305c-0.279-0.521-0.42-1.12-0.42-1.8c0-1.16,0.301-2.07,0.9-2.73s1.345-1.149,2.234-1.47
			c0.891-0.32,1.85-0.521,2.881-0.601c1.029-0.079,1.975-0.12,2.834-0.12h0.9v-0.42c0-1.02-0.305-1.789-0.914-2.31
			c-0.611-0.52-1.466-0.78-2.565-0.78c-0.761,0-1.505,0.125-2.235,0.375c-0.73,0.251-1.375,0.636-1.936,1.155L159.57,200.85z
			 M166.35,206.34c-1.5,0-2.689,0.21-3.57,0.63c-0.88,0.42-1.319,1.11-1.319,2.07c0,0.88,0.294,1.505,0.885,1.875
			c0.59,0.37,1.325,0.555,2.205,0.555c0.68,0,1.274-0.114,1.785-0.345c0.51-0.229,0.935-0.535,1.274-0.915s0.601-0.825,0.78-1.335
			c0.181-0.51,0.28-1.055,0.3-1.635v-0.9H166.35z"/>
		<path fill="#FFFFFF" d="M175.199,199.05h2.34v2.04h0.061c0.64-0.76,1.385-1.35,2.234-1.77c0.851-0.421,1.785-0.631,2.806-0.631
			c1.1,0,2.104,0.186,3.015,0.556s1.686,0.885,2.325,1.545s1.14,1.439,1.5,2.34s0.54,1.88,0.54,2.94c0,1.06-0.18,2.039-0.54,2.939
			s-0.854,1.68-1.485,2.34c-0.629,0.66-1.375,1.176-2.234,1.545c-0.86,0.37-1.78,0.556-2.76,0.556c-1.26,0-2.365-0.275-3.315-0.825
			s-1.646-1.225-2.085-2.025h-0.061v9.33h-2.34V199.05z M177.539,206.07c0,0.739,0.115,1.425,0.346,2.055
			c0.229,0.63,0.564,1.18,1.005,1.649c0.439,0.471,0.965,0.841,1.575,1.11c0.609,0.271,1.295,0.405,2.055,0.405
			s1.445-0.135,2.055-0.405c0.61-0.27,1.135-0.64,1.575-1.11c0.44-0.47,0.774-1.02,1.005-1.649s0.346-1.315,0.346-2.055
			c0-0.74-0.115-1.426-0.346-2.056s-0.564-1.18-1.005-1.649s-0.965-0.841-1.575-1.11c-0.609-0.271-1.295-0.405-2.055-0.405
			s-1.445,0.135-2.055,0.405c-0.61,0.27-1.136,0.641-1.575,1.11c-0.44,0.47-0.775,1.02-1.005,1.649
			C177.654,204.645,177.539,205.33,177.539,206.07z"/>
		<path fill="#FFFFFF" d="M193.949,209.399c0.46,0.581,0.965,1.041,1.516,1.381c0.549,0.34,1.244,0.51,2.084,0.51
			c0.36,0,0.725-0.04,1.096-0.12c0.369-0.08,0.705-0.21,1.005-0.39c0.3-0.181,0.54-0.405,0.72-0.676
			c0.18-0.27,0.27-0.595,0.27-0.975s-0.085-0.69-0.254-0.93c-0.171-0.24-0.396-0.445-0.676-0.615s-0.6-0.305-0.96-0.405
			c-0.36-0.1-0.729-0.189-1.11-0.27c-0.66-0.14-1.289-0.301-1.89-0.48c-0.6-0.18-1.125-0.415-1.575-0.705
			c-0.449-0.289-0.81-0.664-1.08-1.125c-0.27-0.46-0.404-1.05-0.404-1.77c0-0.68,0.15-1.28,0.449-1.8
			c0.301-0.521,0.7-0.95,1.201-1.29c0.499-0.34,1.059-0.601,1.68-0.78c0.619-0.18,1.26-0.271,1.92-0.271c1,0,1.924,0.2,2.775,0.601
			c0.85,0.4,1.514,1.05,1.994,1.95l-1.949,1.29c-0.301-0.5-0.695-0.905-1.186-1.216c-0.49-0.31-1.085-0.465-1.785-0.465
			c-0.32,0-0.645,0.041-0.975,0.12c-0.33,0.08-0.625,0.2-0.885,0.36c-0.261,0.16-0.476,0.365-0.646,0.615s-0.255,0.535-0.255,0.854
			c0,0.3,0.095,0.555,0.285,0.765c0.189,0.21,0.449,0.396,0.779,0.556s0.71,0.3,1.141,0.42c0.43,0.12,0.875,0.22,1.335,0.3
			c0.62,0.12,1.21,0.275,1.771,0.465c0.559,0.19,1.049,0.445,1.469,0.766c0.42,0.319,0.75,0.72,0.99,1.199
			c0.24,0.48,0.36,1.07,0.36,1.771c0,0.8-0.16,1.48-0.479,2.04c-0.32,0.56-0.746,1.015-1.275,1.365
			c-0.53,0.35-1.131,0.604-1.801,0.765s-1.354,0.24-2.055,0.24c-1.199,0-2.234-0.186-3.104-0.556
			c-0.87-0.369-1.655-1.055-2.354-2.055L193.949,209.399z"/>
	</g>
	<g>
		<path fill="#FFFFFF" d="M112.5,0.145c-25.1,0-45.445,20.348-45.445,45.443c0,25.1,45.445,81.258,45.445,81.258
			s45.443-56.158,45.443-81.258C157.943,20.492,137.598,0.145,112.5,0.145z M112.5,58.551c-10.152,0-18.385-8.23-18.385-18.385
			c0-10.155,8.232-18.385,18.385-18.385c10.152,0,18.383,8.229,18.383,18.385C130.883,50.321,122.652,58.551,112.5,58.551z"/>
		<g>
			<path fill="#FFFFFF" d="M136.846,108.762c0,0-8.938,10.763-9.094,11.712c11.646,2.135,20.316,5.986,20.898,7.851
				c-0.842,2.641-12.943,9.346-36.152,9.346c-23.213,0-35.309-6.705-36.15-9.346c0.566-1.781,8.764-5.408,19.521-7.582
				c-0.18-1.037-7.516-11.09-7.516-11.09c-16.098,2.83-24.492,7.854-24.492,18.672c0,14.991,25.213,21.819,48.637,21.819
				c23.426,0,48.641-6.828,48.641-21.819C161.139,117.188,153.588,111.441,136.846,108.762z"/>
		</g>
	</g>
</g>
</svg>
