<?xml version="1.0" encoding="utf-8"?>
<!-- Generator: Adobe Illustrator 16.0.0, SVG Export Plug-In . SVG Version: 6.00 Build 0)  -->
<!DOCTYPE svg PUBLIC "-//W3C//DTD SVG 1.1//EN" "http://www.w3.org/Graphics/SVG/1.1/DTD/svg11.dtd">
<svg version="1.1" id="Layer_1" xmlns="http://www.w3.org/2000/svg" xmlns:xlink="http://www.w3.org/1999/xlink" x="0px" y="0px"
	 width="225px" height="225px" viewBox="0 0 225 225" enable-background="new 0 0 225 225" xml:space="preserve">
<g>
	<g enable-background="new    ">
		<path fill="#FFFFFF" d="M66.255,191.85h2.52v9h11.34v-9h2.52v21.24h-2.52v-9.9h-11.34v9.9h-2.52V191.85z"/>
		<path fill="#FFFFFF" d="M102.165,194.189h-7.02v18.9h-2.52v-18.9h-7.02v-2.34h16.56V194.189z"/>
		<path fill="#FFFFFF" d="M105.134,191.85h3.75l7.2,16.65h0.061l7.26-16.65h3.66v21.24h-2.521v-17.82h-0.06l-7.62,17.82h-1.53
			l-7.62-17.82h-0.06v17.82h-2.52V191.85z"/>
		<path fill="#FFFFFF" d="M132.344,191.85h2.521v18.9h9.72v2.34h-12.24V191.85z"/>
		<path fill="#FFFFFF" d="M158.924,194.189h-8.67l-0.09,5.73c0.4-0.2,0.845-0.335,1.335-0.405c0.489-0.069,0.955-0.104,1.396-0.104
			c1.02,0,1.944,0.175,2.774,0.524c0.83,0.351,1.545,0.84,2.146,1.471c0.6,0.63,1.06,1.37,1.38,2.22
			c0.319,0.851,0.479,1.775,0.479,2.774c0,1.061-0.186,2.025-0.555,2.896c-0.37,0.87-0.881,1.61-1.53,2.22
			c-0.649,0.61-1.42,1.085-2.31,1.425c-0.891,0.34-1.855,0.511-2.895,0.511c-1.621,0-2.926-0.351-3.916-1.051
			c-0.99-0.699-1.775-1.64-2.354-2.819l2.521-0.96c0.359,0.8,0.885,1.445,1.574,1.935c0.689,0.49,1.485,0.735,2.385,0.735
			c0.641,0,1.234-0.115,1.785-0.345c0.55-0.23,1.03-0.561,1.44-0.99c0.409-0.43,0.735-0.945,0.975-1.545
			c0.24-0.601,0.36-1.271,0.36-2.011c0-0.779-0.135-1.47-0.405-2.069c-0.271-0.601-0.64-1.105-1.11-1.516
			c-0.47-0.409-1.025-0.72-1.664-0.93c-0.641-0.21-1.331-0.314-2.07-0.314c-0.721,0-1.461,0.125-2.221,0.375s-1.459,0.564-2.1,0.944
			l0.21-11.04h11.13V194.189z"/>
	</g>
	<g id="g3054_1_" transform="translate(524,270.18109)">
		<path fill="#FFFFFF" d="M-477.631-270.036l12.037,135.005l54.014,14.994l54.163-15.017l12.049-134.984L-477.631-270.036
			L-477.631-270.036z M-370.475-237.997l-0.756,8.395l-0.332,3.721h-0.054H-411.5h-0.057h-23.367l1.514,16.956h21.854h0.057h33.97
			h4.463l-0.404,4.446l-3.891,43.592l-0.25,2.797l-33.888,9.392v0.003l-0.076,0.021l-33.917-9.416l-2.319-25.998h7.66h8.961
			l1.178,13.205l18.441,4.98l0.016-0.006l0,0l18.467-4.984l1.922-21.475H-411.5h-0.057h-36.996l-4.07-45.629l-0.396-4.442h41.462
			h0.057h41.42L-370.475-237.997z"/>
	</g>
</g>
</svg>
