<?xml version="1.0" encoding="utf-8"?>
<!-- Generator: Adobe Illustrator 16.0.0, SVG Export Plug-In . SVG Version: 6.00 Build 0)  -->
<!DOCTYPE svg PUBLIC "-//W3C//DTD SVG 1.1//EN" "http://www.w3.org/Graphics/SVG/1.1/DTD/svg11.dtd">
<svg version="1.1" id="Layer_1" xmlns="http://www.w3.org/2000/svg" xmlns:xlink="http://www.w3.org/1999/xlink" x="0px" y="0px"
	 width="150px" height="150px" viewBox="0 0 150 150" enable-background="new 0 0 150 150" xml:space="preserve">
<g>
	<g>
		<path fill="#FFFFFF" d="M92.412,106.958c-13.938,6.953-22.598-16.249-33.271-3.157L46.468,133.28
			c-0.681,1.382-0.6,3.018,0.214,4.327s2.248,2.105,3.789,2.105h49.057c1.54,0,2.974-0.796,3.788-2.105
			c0.815-1.31,0.896-2.945,0.214-4.327L92.412,106.958z"/>
	</g>
	<path fill="#FFFFFF" d="M114.378,130.375L94.236,83.678V48.049h3.105c1.599,0,2.896-1.297,2.896-2.897
		c0-1.599-1.297-2.896-2.896-2.896h-5.965c-1.601,0-2.897,1.297-2.897,2.896c0,0.006,0.002,0.011,0.002,0.017l-0.024,0.018h-0.014
		l-0.007,39.842l20.737,47.907c1.201,2.44,1.062,5.271-0.375,7.58c-1.436,2.309-3.916,3.687-6.635,3.687H47.835
		c-2.719,0-5.2-1.378-6.634-3.686c-1.437-2.31-1.577-5.141-0.376-7.581l20.738-47.907l-0.008-39.842h0.003l-0.053-0.039
		c-0.002-1.598-1.298-2.892-2.896-2.892h-5.964c-1.601,0-2.897,1.297-2.897,2.896c0,1.6,1.297,2.897,2.897,2.897h3.119v35.627
		l-20.14,46.698c-2.092,4.247-1.848,9.186,0.654,13.205c2.501,4.02,6.822,6.42,11.558,6.42h54.329c4.736,0,9.056-2.4,11.558-6.422
		C116.223,139.561,116.469,134.622,114.378,130.375z"/>
	<g>
		<circle fill="#FFFFFF" cx="75.367" cy="34.888" r="6.81"/>
		<circle fill="#FFFFFF" cx="63.468" cy="19.624" r="5.083"/>
		<circle fill="#FFFFFF" cx="69.519" cy="3.781" r="3.78"/>
	</g>
</g>
</svg>
