<?xml version="1.0" encoding="utf-8"?>
<!-- Generator: Adobe Illustrator 16.0.0, SVG Export Plug-In . SVG Version: 6.00 Build 0)  -->
<!DOCTYPE svg PUBLIC "-//W3C//DTD SVG 1.1//EN" "http://www.w3.org/Graphics/SVG/1.1/DTD/svg11.dtd">
<svg version="1.1" id="Layer_1" xmlns="http://www.w3.org/2000/svg" xmlns:xlink="http://www.w3.org/1999/xlink" x="0px" y="0px"
	 width="225px" height="225px" viewBox="0 0 225 225" enable-background="new 0 0 225 225" xml:space="preserve">
<g>
	<g>
		<path fill="#FFFFFF" d="M90.69,191.85h2.52v18.9h9.72v2.34H90.69V191.85z"/>
		<path fill="#FFFFFF" d="M105.09,200.85c0.72-0.739,1.575-1.284,2.565-1.635c0.99-0.35,1.995-0.525,3.015-0.525
			c2.08,0,3.58,0.49,4.5,1.471c0.92,0.979,1.381,2.47,1.381,4.47v6.03c0,0.4,0.02,0.814,0.06,1.245
			c0.04,0.43,0.09,0.824,0.149,1.185h-2.25c-0.08-0.319-0.125-0.675-0.135-1.065c-0.01-0.39-0.015-0.734-0.015-1.034h-0.06
			c-0.461,0.72-1.076,1.31-1.846,1.77c-0.77,0.46-1.695,0.69-2.775,0.69c-0.72,0-1.395-0.091-2.025-0.271s-1.18-0.444-1.65-0.795
			c-0.47-0.35-0.845-0.784-1.125-1.305c-0.28-0.521-0.42-1.12-0.42-1.8c0-1.16,0.3-2.07,0.9-2.73s1.345-1.149,2.235-1.47
			c0.89-0.32,1.85-0.521,2.88-0.601c1.03-0.079,1.975-0.12,2.835-0.12h0.9v-0.42c0-1.02-0.306-1.789-0.916-2.31
			c-0.61-0.52-1.465-0.78-2.564-0.78c-0.76,0-1.505,0.125-2.235,0.375c-0.73,0.251-1.375,0.636-1.935,1.155L105.09,200.85z
			 M111.87,206.34c-1.5,0-2.69,0.21-3.57,0.63c-0.88,0.42-1.32,1.11-1.32,2.07c0,0.88,0.294,1.505,0.885,1.875
			c0.59,0.37,1.325,0.555,2.205,0.555c0.68,0,1.275-0.114,1.785-0.345c0.51-0.229,0.935-0.535,1.275-0.915
			c0.34-0.38,0.6-0.825,0.779-1.335s0.279-1.055,0.301-1.635v-0.9H111.87z"/>
		<path fill="#FFFFFF" d="M120.721,190.41h2.34v10.68h0.06c0.64-0.76,1.385-1.35,2.235-1.77c0.85-0.421,1.785-0.631,2.805-0.631
			c1.1,0,2.104,0.186,3.016,0.556c0.909,0.37,1.684,0.885,2.324,1.545s1.141,1.439,1.5,2.34c0.36,0.9,0.54,1.88,0.54,2.94
			c0,1.06-0.18,2.039-0.54,2.939c-0.359,0.9-0.855,1.68-1.484,2.34c-0.631,0.66-1.376,1.176-2.235,1.545
			c-0.86,0.37-1.78,0.556-2.761,0.556c-1.26,0-2.365-0.275-3.314-0.825c-0.95-0.55-1.646-1.225-2.085-2.025h-0.06v2.49h-2.34V190.41
			z M123.061,206.07c0,0.739,0.114,1.425,0.345,2.055c0.229,0.63,0.564,1.18,1.005,1.649c0.439,0.471,0.965,0.841,1.575,1.11
			c0.609,0.271,1.294,0.405,2.055,0.405c0.76,0,1.444-0.135,2.056-0.405c0.609-0.27,1.135-0.64,1.574-1.11
			c0.439-0.47,0.775-1.02,1.006-1.649c0.229-0.63,0.344-1.315,0.344-2.055c0-0.74-0.115-1.426-0.344-2.056
			c-0.23-0.63-0.566-1.18-1.006-1.649s-0.965-0.841-1.574-1.11c-0.611-0.271-1.296-0.405-2.056-0.405
			c-0.761,0-1.445,0.135-2.055,0.405c-0.61,0.27-1.136,0.641-1.575,1.11c-0.44,0.47-0.775,1.02-1.005,1.649
			C123.175,204.645,123.061,205.33,123.061,206.07z"/>
	</g>
	<g>
		<g>
			<path fill="#FFFFFF" d="M129.714,107.628c-13.779,6.874-22.341-16.064-32.892-3.122L84.293,133.65
				c-0.674,1.367-0.594,2.984,0.212,4.279c0.805,1.294,2.222,2.081,3.745,2.081h48.5c1.522,0,2.939-0.787,3.745-2.081
				c0.806-1.295,0.886-2.912,0.211-4.279L129.714,107.628z"/>
		</g>
		<path fill="#FFFFFF" d="M151.43,130.778l-19.912-46.166V49.389h3.069c1.582,0,2.864-1.282,2.864-2.864s-1.282-2.864-2.864-2.864
			h-5.896c-1.582,0-2.864,1.282-2.864,2.864c0,0.005,0.002,0.011,0.002,0.017l-0.024,0.018h-0.014l-0.007,39.389l20.503,47.363
			c1.188,2.412,1.049,5.212-0.372,7.494c-1.419,2.282-3.871,3.645-6.559,3.645H85.645c-2.688,0-5.141-1.362-6.56-3.644
			c-1.42-2.283-1.559-5.083-0.371-7.495l20.502-47.363l-0.008-39.389h0.003l-0.053-0.039c-0.002-1.58-1.283-2.859-2.863-2.859
			h-5.896c-1.582,0-2.864,1.282-2.864,2.864s1.282,2.864,2.864,2.864h3.084v35.223l-19.911,46.167
			c-2.068,4.199-1.827,9.081,0.646,13.056c2.473,3.974,6.744,6.347,11.427,6.347h53.711c4.682,0,8.953-2.373,11.427-6.349
			C153.255,139.859,153.497,134.978,151.43,130.778z"/>
		<g>
			<circle fill="#FFFFFF" cx="112.863" cy="36.377" r="6.732"/>
			<circle fill="#FFFFFF" cx="101.099" cy="21.287" r="5.025"/>
			<circle fill="#FFFFFF" cx="107.081" cy="5.624" r="3.737"/>
		</g>
	</g>
</g>
</svg>
