<?xml version="1.0" encoding="utf-8"?>
<!-- Generator: Adobe Illustrator 16.0.0, SVG Export Plug-In . SVG Version: 6.00 Build 0)  -->
<!DOCTYPE svg PUBLIC "-//W3C//DTD SVG 1.1//EN" "http://www.w3.org/Graphics/SVG/1.1/DTD/svg11.dtd">
<svg version="1.1" id="Layer_1" xmlns="http://www.w3.org/2000/svg" xmlns:xlink="http://www.w3.org/1999/xlink" x="0px" y="0px"
	 width="50px" height="50px" viewBox="0 0 50 50" enable-background="new 0 0 50 50" xml:space="preserve">
<path fill="#E3A612" d="M32.253,27.222l-0.949,0.865l-1.514-1.741c2.406-2.787,3.855-6.356,3.855-10.246
	c0-8.879-7.544-16.1-16.823-16.1C7.547,0,0,7.221,0,16.1c0,8.877,7.547,16.098,16.823,16.098c3.76,0,7.234-1.185,10.039-3.188
	l1.578,1.7l-0.921,0.846L44.595,50C46.848,49.312,50,45.241,50,45.241L32.253,27.222z M16.823,26.93
	c-6.242,0-11.318-4.856-11.318-10.83S10.581,5.267,16.823,5.267c6.243,0,11.319,4.86,11.319,10.833S23.065,26.93,16.823,26.93z"/>
</svg>
