<?xml version="1.0" encoding="utf-8"?>
<!-- Generator: Adobe Illustrator 16.0.0, SVG Export Plug-In . SVG Version: 6.00 Build 0)  -->
<!DOCTYPE svg PUBLIC "-//W3C//DTD SVG 1.1//EN" "http://www.w3.org/Graphics/SVG/1.1/DTD/svg11.dtd">
<svg version="1.1" id="Layer_1" xmlns="http://www.w3.org/2000/svg" xmlns:xlink="http://www.w3.org/1999/xlink" x="0px" y="0px"
	 width="100px" height="100px" viewBox="0 0 100 100" enable-background="new 0 0 100 100" xml:space="preserve">
<g>
	<path fill="#FFFFFF" d="M88.463,96.155c1.402,0,2.813-0.541,3.887-1.614c2.146-2.146,2.146-5.619,0-7.765L11.028,5.454
		c-2.145-2.146-5.625-2.146-7.769,0c-2.146,2.146-2.146,5.624,0,7.77l81.317,81.317C85.649,95.614,87.052,96.155,88.463,96.155z"/>
	<g>
		<path fill="#FFFFFF" d="M47.802,74.503c-11.086,0-20.109-9.018-20.109-20.117c0-2.3,0.404-4.494,1.119-6.55L6.213,25.238
			C2.685,25.843,0,28.909,0,32.607v43.565c0,4.138,3.354,7.496,7.491,7.496h57.154L54.362,73.378
			C52.304,74.098,50.1,74.503,47.802,74.503z"/>
		<path fill="#FFFFFF" d="M52.202,29.882c11.08,0,20.106,9.024,20.106,20.108c0,2.297-0.406,4.505-1.119,6.565l22.594,22.603
			C97.32,78.543,100,75.481,100,71.777V28.212c0-4.135-3.35-7.489-7.497-7.489h-22.28c0-4.615-3.738-8.353-8.365-8.353H42.527
			c-4.239,0-7.73,3.158-8.271,7.253l11.381,11.381C47.697,30.288,49.898,29.882,52.202,29.882z M82.485,26.412
			c0-0.553,0.442-1.012,1.001-1.012h10.829c0.549,0,1.001,0.459,1.001,1.012v5.849c0,0.558-0.452,1.006-1.001,1.006H83.486
			c-0.559,0-1.001-0.448-1.001-1.006V26.412z"/>
		<path fill="#FFFFFF" d="M35.141,54.386c0,6.983,5.683,12.674,12.662,12.674c0.077,0,0.146-0.009,0.223-0.01L35.15,54.175
			C35.149,54.24,35.141,54.312,35.141,54.386z"/>
		<path fill="#FFFFFF" d="M64.854,49.99c0-6.979-5.677-12.655-12.651-12.655c-0.077,0-0.15,0.009-0.228,0.01L64.844,50.21
			C64.845,50.137,64.854,50.063,64.854,49.99z"/>
	</g>
</g>
</svg>
