<?xml version="1.0" encoding="utf-8"?>
<!-- Generator: Adobe Illustrator 16.0.0, SVG Export Plug-In . SVG Version: 6.00 Build 0)  -->
<!DOCTYPE svg PUBLIC "-//W3C//DTD SVG 1.1//EN" "http://www.w3.org/Graphics/SVG/1.1/DTD/svg11.dtd">
<svg version="1.1" id="Layer_1" xmlns="http://www.w3.org/2000/svg" xmlns:xlink="http://www.w3.org/1999/xlink" x="0px" y="0px"
	 width="225px" height="225px" viewBox="0 0 225 225" enable-background="new 0 0 225 225" xml:space="preserve">
<g>
	<g enable-background="new    ">
		<path fill="#FFFFFF" d="M39.271,191.85h5.43c1.02,0,2.035,0.061,3.045,0.181c1.009,0.119,1.915,0.38,2.715,0.779
			c0.8,0.4,1.45,0.985,1.95,1.755c0.5,0.771,0.75,1.815,0.75,3.136c0,1.56-0.47,2.819-1.41,3.779c-0.94,0.96-2.24,1.57-3.9,1.83
			l6.03,9.78h-3.09l-5.76-9.54h-3.24v9.54h-2.52V191.85z M41.791,201.21h2.25c0.7,0,1.425-0.02,2.175-0.061
			c0.75-0.039,1.44-0.169,2.07-0.39c0.63-0.22,1.15-0.564,1.56-1.035c0.41-0.47,0.615-1.145,0.615-2.024c0-0.76-0.15-1.37-0.45-1.83
			c-0.3-0.46-0.695-0.815-1.185-1.065s-1.04-0.415-1.65-0.495c-0.61-0.079-1.225-0.12-1.845-0.12h-3.54V201.21z"/>
		<path fill="#FFFFFF" d="M69.72,210.54c-0.84,1.08-1.76,1.835-2.76,2.265c-1,0.43-2.16,0.646-3.48,0.646
			c-1.1,0-2.09-0.195-2.97-0.585c-0.88-0.391-1.625-0.915-2.235-1.575c-0.61-0.66-1.08-1.44-1.41-2.34
			c-0.33-0.9-0.495-1.86-0.495-2.88c0-1.08,0.18-2.075,0.54-2.985c0.36-0.91,0.859-1.69,1.5-2.34c0.64-0.65,1.399-1.155,2.28-1.516
			c0.88-0.359,1.84-0.54,2.88-0.54c0.98,0,1.88,0.165,2.7,0.495c0.82,0.33,1.525,0.811,2.115,1.44s1.045,1.4,1.365,2.31
			c0.32,0.91,0.48,1.945,0.48,3.105v0.75H58.89c0.04,0.6,0.185,1.175,0.435,1.725c0.25,0.551,0.574,1.03,0.975,1.44
			c0.4,0.41,0.87,0.734,1.41,0.975s1.13,0.36,1.77,0.36c1.02,0,1.88-0.181,2.58-0.54c0.7-0.36,1.33-0.89,1.89-1.59L69.72,210.54z
			 M67.71,204.81c-0.041-1.2-0.43-2.16-1.17-2.88c-0.74-0.72-1.76-1.08-3.06-1.08c-1.3,0-2.35,0.36-3.15,1.08
			c-0.8,0.72-1.28,1.68-1.44,2.88H67.71z"/>
		<path fill="#FFFFFF" d="M74.16,209.399c0.46,0.581,0.965,1.041,1.515,1.381c0.55,0.34,1.245,0.51,2.085,0.51
			c0.36,0,0.725-0.04,1.095-0.12s0.705-0.21,1.005-0.39c0.3-0.181,0.54-0.405,0.72-0.676c0.18-0.27,0.27-0.595,0.27-0.975
			s-0.085-0.69-0.255-0.93c-0.17-0.24-0.395-0.445-0.675-0.615s-0.6-0.305-0.96-0.405c-0.36-0.1-0.73-0.189-1.11-0.27
			c-0.66-0.14-1.29-0.301-1.89-0.48c-0.6-0.18-1.125-0.415-1.575-0.705c-0.45-0.289-0.81-0.664-1.08-1.125
			c-0.27-0.46-0.405-1.05-0.405-1.77c0-0.68,0.15-1.28,0.45-1.8c0.3-0.521,0.7-0.95,1.2-1.29c0.5-0.34,1.06-0.601,1.68-0.78
			c0.62-0.18,1.26-0.271,1.92-0.271c1,0,1.925,0.2,2.775,0.601c0.85,0.4,1.515,1.05,1.995,1.95l-1.95,1.29
			c-0.3-0.5-0.695-0.905-1.185-1.216c-0.49-0.31-1.085-0.465-1.785-0.465c-0.32,0-0.645,0.041-0.975,0.12
			c-0.33,0.08-0.625,0.2-0.885,0.36c-0.26,0.16-0.475,0.365-0.645,0.615s-0.255,0.535-0.255,0.854c0,0.3,0.095,0.555,0.285,0.765
			s0.45,0.396,0.78,0.556s0.709,0.3,1.14,0.42c0.43,0.12,0.875,0.22,1.335,0.3c0.62,0.12,1.209,0.275,1.77,0.465
			c0.56,0.19,1.05,0.445,1.47,0.766c0.42,0.319,0.75,0.72,0.99,1.199c0.24,0.48,0.36,1.07,0.36,1.771c0,0.8-0.16,1.48-0.48,2.04
			c-0.32,0.56-0.745,1.015-1.275,1.365c-0.53,0.35-1.13,0.604-1.8,0.765s-1.355,0.24-2.055,0.24c-1.2,0-2.235-0.186-3.105-0.556
			c-0.87-0.369-1.655-1.055-2.355-2.055L74.16,209.399z"/>
		<path fill="#FFFFFF" d="M86.52,199.05h2.34v2.04h0.06c0.64-0.76,1.385-1.35,2.235-1.77c0.85-0.421,1.785-0.631,2.805-0.631
			c1.1,0,2.104,0.186,3.015,0.556c0.91,0.37,1.685,0.885,2.325,1.545s1.14,1.439,1.5,2.34c0.36,0.9,0.54,1.88,0.54,2.94
			c0,1.06-0.18,2.039-0.54,2.939c-0.36,0.9-0.855,1.68-1.485,2.34s-1.375,1.176-2.235,1.545c-0.86,0.37-1.78,0.556-2.76,0.556
			c-1.26,0-2.365-0.275-3.315-0.825c-0.95-0.55-1.646-1.225-2.085-2.025h-0.06v9.33h-2.34V199.05z M88.86,206.07
			c0,0.739,0.115,1.425,0.345,2.055c0.229,0.63,0.564,1.18,1.005,1.649c0.439,0.471,0.965,0.841,1.575,1.11
			c0.609,0.271,1.294,0.405,2.055,0.405c0.76,0,1.445-0.135,2.055-0.405c0.61-0.27,1.135-0.64,1.575-1.11
			c0.44-0.47,0.775-1.02,1.005-1.649c0.229-0.63,0.345-1.315,0.345-2.055c0-0.74-0.115-1.426-0.345-2.056
			c-0.23-0.63-0.565-1.18-1.005-1.649s-0.965-0.841-1.575-1.11c-0.61-0.271-1.295-0.405-2.055-0.405
			c-0.76,0-1.445,0.135-2.055,0.405c-0.61,0.27-1.136,0.641-1.575,1.11c-0.44,0.47-0.775,1.02-1.005,1.649
			C88.975,204.645,88.86,205.33,88.86,206.07z"/>
		<path fill="#FFFFFF" d="M104.16,206.07c0-1.101,0.189-2.101,0.57-3c0.38-0.9,0.9-1.676,1.56-2.325
			c0.66-0.65,1.45-1.155,2.37-1.516c0.919-0.359,1.92-0.54,3-0.54s2.08,0.181,3,0.54c0.919,0.36,1.709,0.865,2.369,1.516
			c0.66,0.649,1.18,1.425,1.561,2.325c0.379,0.899,0.57,1.899,0.57,3c0,1.1-0.191,2.1-0.57,3c-0.381,0.899-0.9,1.675-1.561,2.324
			c-0.66,0.65-1.45,1.155-2.369,1.516c-0.921,0.359-1.92,0.54-3,0.54s-2.081-0.181-3-0.54c-0.92-0.36-1.71-0.865-2.37-1.516
			c-0.66-0.649-1.18-1.425-1.56-2.324C104.349,208.17,104.16,207.17,104.16,206.07z M106.68,206.07c0,0.739,0.115,1.425,0.345,2.055
			s0.565,1.18,1.005,1.649c0.44,0.471,0.965,0.841,1.575,1.11c0.61,0.271,1.295,0.405,2.055,0.405c0.76,0,1.444-0.135,2.055-0.405
			c0.609-0.27,1.135-0.64,1.574-1.11c0.439-0.47,0.775-1.02,1.006-1.649c0.229-0.63,0.345-1.315,0.345-2.055
			c0-0.74-0.115-1.426-0.345-2.056c-0.23-0.63-0.566-1.18-1.006-1.649s-0.965-0.841-1.574-1.11
			c-0.611-0.271-1.295-0.405-2.055-0.405c-0.76,0-1.445,0.135-2.055,0.405c-0.61,0.27-1.135,0.641-1.575,1.11
			s-0.775,1.02-1.005,1.649S106.68,205.33,106.68,206.07z"/>
		<path fill="#FFFFFF" d="M122.79,202.38c0-0.64-0.021-1.24-0.06-1.8c-0.041-0.56-0.061-1.07-0.061-1.53h2.22
			c0,0.38,0.011,0.761,0.03,1.14c0.02,0.381,0.029,0.771,0.029,1.17h0.061c0.16-0.34,0.385-0.669,0.676-0.989
			c0.289-0.32,0.634-0.604,1.034-0.855c0.399-0.25,0.851-0.45,1.351-0.6c0.499-0.15,1.039-0.226,1.619-0.226
			c0.92,0,1.715,0.141,2.385,0.42c0.67,0.281,1.226,0.671,1.666,1.171c0.439,0.5,0.765,1.104,0.975,1.814s0.314,1.485,0.314,2.325
			v8.67h-2.34v-8.43c0-1.18-0.26-2.11-0.779-2.79c-0.521-0.68-1.33-1.021-2.43-1.021c-0.761,0-1.416,0.131-1.966,0.391
			s-1,0.63-1.35,1.109c-0.351,0.48-0.61,1.05-0.78,1.71s-0.255,1.391-0.255,2.19v6.84h-2.34V202.38z"/>
		<path fill="#FFFFFF" d="M139.77,209.399c0.46,0.581,0.965,1.041,1.516,1.381c0.549,0.34,1.244,0.51,2.084,0.51
			c0.36,0,0.725-0.04,1.096-0.12c0.369-0.08,0.705-0.21,1.005-0.39c0.3-0.181,0.54-0.405,0.72-0.676
			c0.18-0.27,0.27-0.595,0.27-0.975s-0.085-0.69-0.254-0.93c-0.171-0.24-0.396-0.445-0.676-0.615s-0.6-0.305-0.96-0.405
			c-0.36-0.1-0.729-0.189-1.11-0.27c-0.66-0.14-1.289-0.301-1.89-0.48c-0.6-0.18-1.125-0.415-1.575-0.705
			c-0.449-0.289-0.81-0.664-1.08-1.125c-0.27-0.46-0.404-1.05-0.404-1.77c0-0.68,0.15-1.28,0.449-1.8
			c0.301-0.521,0.7-0.95,1.201-1.29c0.499-0.34,1.059-0.601,1.68-0.78c0.619-0.18,1.26-0.271,1.92-0.271c1,0,1.924,0.2,2.775,0.601
			c0.85,0.4,1.514,1.05,1.994,1.95l-1.949,1.29c-0.301-0.5-0.695-0.905-1.186-1.216c-0.49-0.31-1.085-0.465-1.785-0.465
			c-0.32,0-0.645,0.041-0.975,0.12c-0.33,0.08-0.625,0.2-0.885,0.36c-0.261,0.16-0.476,0.365-0.646,0.615s-0.255,0.535-0.255,0.854
			c0,0.3,0.095,0.555,0.285,0.765c0.189,0.21,0.449,0.396,0.779,0.556s0.71,0.3,1.141,0.42c0.43,0.12,0.875,0.22,1.335,0.3
			c0.62,0.12,1.21,0.275,1.771,0.465c0.559,0.19,1.049,0.445,1.469,0.766c0.42,0.319,0.75,0.72,0.99,1.199
			c0.24,0.48,0.36,1.07,0.36,1.771c0,0.8-0.16,1.48-0.479,2.04c-0.32,0.56-0.746,1.015-1.275,1.365
			c-0.53,0.35-1.131,0.604-1.801,0.765s-1.354,0.24-2.055,0.24c-1.199,0-2.234-0.186-3.104-0.556
			c-0.87-0.369-1.655-1.055-2.354-2.055L139.77,209.399z"/>
		<path fill="#FFFFFF" d="M151.92,193.56c0-0.46,0.164-0.859,0.494-1.2c0.33-0.34,0.735-0.51,1.215-0.51
			c0.48,0,0.885,0.17,1.215,0.51c0.33,0.341,0.496,0.74,0.496,1.2c0,0.5-0.16,0.91-0.48,1.23s-0.73,0.479-1.23,0.479
			s-0.91-0.159-1.229-0.479C152.079,194.47,151.92,194.06,151.92,193.56z M152.459,199.05h2.34v14.04h-2.34V199.05z"/>
		<path fill="#FFFFFF" d="M165.839,213.09h-2.58l-5.729-14.04h2.729l4.38,11.01h0.061l4.17-11.01h2.52L165.839,213.09z"/>
		<path fill="#FFFFFF" d="M186.449,210.54c-0.84,1.08-1.76,1.835-2.76,2.265c-1.001,0.43-2.16,0.646-3.48,0.646
			c-1.1,0-2.09-0.195-2.971-0.585c-0.879-0.391-1.625-0.915-2.234-1.575c-0.61-0.66-1.08-1.44-1.41-2.34
			c-0.33-0.9-0.494-1.86-0.494-2.88c0-1.08,0.18-2.075,0.539-2.985c0.36-0.91,0.859-1.69,1.5-2.34c0.641-0.65,1.4-1.155,2.28-1.516
			c0.88-0.359,1.84-0.54,2.88-0.54c0.98,0,1.88,0.165,2.7,0.495c0.819,0.33,1.524,0.811,2.114,1.44s1.045,1.4,1.365,2.31
			c0.32,0.91,0.48,1.945,0.48,3.105v0.75h-11.34c0.039,0.6,0.185,1.175,0.436,1.725c0.249,0.551,0.574,1.03,0.975,1.44
			c0.399,0.41,0.869,0.734,1.41,0.975c0.539,0.24,1.129,0.36,1.77,0.36c1.02,0,1.88-0.181,2.58-0.54
			c0.699-0.36,1.33-0.89,1.891-1.59L186.449,210.54z M184.439,204.81c-0.041-1.2-0.431-2.16-1.17-2.88
			c-0.74-0.72-1.761-1.08-3.061-1.08c-1.301,0-2.35,0.36-3.15,1.08c-0.8,0.72-1.279,1.68-1.439,2.88H184.439z"/>
	</g>
	<g>
		<g>
			<path fill="#FFFFFF" d="M212.923,20.145H67.7c-2.546,0-4.605,2.154-4.605,4.812v34.061H69V26.05h142.588v76.586H97.097v23.729
				h26.075c0.037,2.406,0.141,10.276-1.877,12.693l-9.108,9.043c-1.815,2.043,1.534,2.043,4.024,2.043h23.979h0.215h23.979
				c2.49,0,5.804,0,4.057-2.043l-9.14-9.043c-1.96-2.417-1.916-10.286-1.879-12.693h55.501c2.516,0,4.578-2.124,4.578-4.782V24.957
				C217.5,22.299,215.439,20.145,212.923,20.145z M140.328,119.129c-2.383,0-4.266-1.939-4.266-4.249
				c0-2.324,1.883-4.256,4.266-4.256c2.318,0,4.203,1.933,4.203,4.256C144.531,117.188,142.646,119.129,140.328,119.129z"/>
		</g>
		<path fill="#FFFFFF" d="M39.999,89.724H10.131c-1.47,0-2.631,1.229-2.631,2.719v54.991c0,1.49,1.161,2.711,2.631,2.711h29.867
			c1.443,0,2.603-1.221,2.603-2.711V92.442C42.601,90.953,41.442,89.724,39.999,89.724z M22.148,92.506h5.841
			c0.318,0,0.567,0.25,0.567,0.604c0,0.325-0.249,0.567-0.567,0.567h-5.841c-0.323,0-0.605-0.244-0.605-0.567
			C21.543,92.757,21.825,92.506,22.148,92.506z M25.054,148.481c-1.332,0-2.395-1.056-2.395-2.425c0-1.294,1.063-2.427,2.395-2.427
			s2.426,1.132,2.426,2.427C27.479,147.426,26.386,148.481,25.054,148.481z M39.271,141.918H10.858V96.593h28.413V141.918z"/>
		<g>
			<path fill="#FFFFFF" d="M90.177,62.13H31.29c-2.084,0-3.806,1.772-3.806,3.959v20.554h4.867V69.557h56.761v71.143h-43.4v6.734
				c0,0.996-0.259,1.887-0.68,2.711h45.146c2.111,0,3.833-1.803,3.833-3.968V66.088C94.01,63.902,92.289,62.13,90.177,62.13z
				 M60.732,148.061c-1.417,0-2.557-1.169-2.557-2.59c0-1.422,1.14-2.535,2.557-2.535c1.419,0,2.562,1.113,2.562,2.535
				C63.293,146.892,62.151,148.061,60.732,148.061z"/>
		</g>
	</g>
</g>
</svg>
