<?xml version="1.0" encoding="utf-8"?>
<!-- Generator: Adobe Illustrator 16.0.0, SVG Export Plug-In . SVG Version: 6.00 Build 0)  -->
<!DOCTYPE svg PUBLIC "-//W3C//DTD SVG 1.1//EN" "http://www.w3.org/Graphics/SVG/1.1/DTD/svg11.dtd">
<svg version="1.1" id="Layer_1" xmlns="http://www.w3.org/2000/svg" xmlns:xlink="http://www.w3.org/1999/xlink" x="0px" y="0px"
	 width="200px" height="40px" viewBox="0 0 200 40" enable-background="new 0 0 200 40" xml:space="preserve">
<g>
	<g>
		<g>
			<path fill="#FFFFFF" d="M52.779,23.271c-0.638-0.464-1.75-0.689-3.402-0.689H39.138v-2.529h10.577v1.574l3.804-0.725v-0.43
				c0-1.187-0.336-2.018-1-2.465c-0.646-0.444-1.733-0.659-3.326-0.659h-9.467c-1.657,0-2.762,0.223-3.381,0.682
				c-0.635,0.481-0.945,1.354-0.945,2.672v1.49c0,1.305,0.319,2.203,0.947,2.67c0.618,0.459,1.755,0.691,3.38,0.691h10.213v2.71
				H38.524v-1.628l-3.804,0.637v0.521c0,1.316,0.313,2.189,0.961,2.672c0.638,0.465,1.748,0.689,3.396,0.689h10.308
				c1.626,0,2.768-0.23,3.395-0.689c0.648-0.48,0.963-1.354,0.963-2.672v-1.851C53.744,24.635,53.419,23.735,52.779,23.271z"/>
			<rect x="61.413" y="17.348" fill="#FFFFFF" width="4.255" height="13.806"/>
			<path fill="#FFFFFF" d="M88.293,26.07c2.613,0,3.938-0.938,3.938-2.787v-3.155c0-1.844-1.325-2.78-3.938-2.78H73.821v13.806h4.19
				V26.07h3.43l6.72,5.084h6.229l-7.688-5.084H88.293z M78.011,20h8.535c0.574,0,0.972,0.049,1.176,0.138
				c0.163,0.082,0.382,0.247,0.382,0.756v1.631c0,0.383-0.125,0.629-0.375,0.75c-0.148,0.066-0.472,0.145-1.184,0.145h-8.535V20z"/>
			<path fill="#FFFFFF" d="M119.367,18.03c-0.617-0.459-1.725-0.682-3.381-0.682h-12.279c-1.656,0-2.765,0.223-3.383,0.682
				c-0.633,0.479-0.941,1.354-0.941,2.672v7.091c0,1.318,0.308,2.189,0.943,2.672c0.625,0.463,1.731,0.689,3.381,0.689h12.279
				c1.65,0,2.756-0.227,3.383-0.691c0.633-0.48,0.943-1.352,0.943-2.67v-7.091C120.312,19.384,120.002,18.509,119.367,18.03z
				 M116.057,20.106v8.156h-12.42v-8.156H116.057z"/>
			<polygon fill="#FFFFFF" points="147.758,17.348 141.395,17.348 132.396,22.796 132.396,17.348 128.109,17.348 128.109,31.154 
				132.396,31.154 132.396,25.379 142.096,31.127 142.141,31.154 149.111,31.154 136.389,23.854 			"/>
			<polygon fill="#FFFFFF" points="173.414,17.348 167.055,17.348 158.057,22.796 158.057,17.348 153.77,17.348 153.77,31.154 
				158.057,31.154 158.057,25.379 167.799,31.154 174.77,31.154 162.047,23.854 			"/>
			<path fill="#FFFFFF" d="M199.053,18.03c-0.619-0.459-1.723-0.682-3.381-0.682h-12.277c-1.654,0-2.76,0.223-3.383,0.683
				c-0.633,0.48-0.939,1.353-0.939,2.67v7.091c0,1.316,0.307,2.188,0.941,2.672c0.629,0.463,1.734,0.689,3.381,0.689h12.277
				c1.65,0,2.754-0.227,3.385-0.691c0.635-0.482,0.943-1.354,0.943-2.67v-7.091C200,19.404,199.682,18.506,199.053,18.03z
				 M195.74,20.106v8.156h-12.414v-8.156H195.74z"/>
		</g>
	</g>
	<g>
		<path fill="#FFFFFF" d="M24.571,20.293l-11.254-1.259l-7.074,6.694l0.6,9.062L16.603,40l11.472-7.617L24.571,20.293z
			 M15.963,36.223l-7.02-3.253l-0.625-6.74l5.333-4.909l7.905,1.282l2.053,8.227L15.963,36.223z"/>
		<path fill="#FFFFFF" d="M11.522,10.877l-6.617,0.364L0,16.977v6.34l5.725,1.762l6.953-6.716L11.522,10.877z M5.638,22.84
			l-4.279-1.037l-0.076-4.616l3.667-4.21l4.672-0.084l0.657,5.247L5.638,22.84z"/>
		<path fill="#FFFFFF" d="M32.199,0L19.789,2.604L12.42,10.71l1.163,7.547l11.052,1.217L36.787,9.171L32.199,0z M23.624,16.514
			l-7.951-0.461l-1.034-5.517l5.561-5.94l8.682-1.469l2.715,6.338L23.624,16.514z"/>
	</g>
</g>
</svg>
