<?xml version="1.0" encoding="utf-8"?>
<!-- Generator: Adobe Illustrator 16.0.0, SVG Export Plug-In . SVG Version: 6.00 Build 0)  -->
<!DOCTYPE svg PUBLIC "-//W3C//DTD SVG 1.1//EN" "http://www.w3.org/Graphics/SVG/1.1/DTD/svg11.dtd">
<svg version="1.1" id="Layer_1" xmlns="http://www.w3.org/2000/svg" xmlns:xlink="http://www.w3.org/1999/xlink" x="0px" y="0px"
	 width="225px" height="225px" viewBox="0 0 225 225" enable-background="new 0 0 225 225" xml:space="preserve">
<g>
	<g>
		<g>
			<path fill="#FFFFFF" d="M92.812,95.181h-2.811c-0.618,0-1.162,0.405-1.338,0.994l-2.338,7.895l-2.733-7.952
				c-0.192-0.56-0.724-0.937-1.319-0.937H79.53c-0.599,0-1.13,0.379-1.321,0.944l-2.681,7.926l-2.356-7.88
				c-0.176-0.588-0.719-0.991-1.336-0.991h-2.877c-0.447,0-0.865,0.212-1.129,0.571c-0.262,0.359-0.335,0.821-0.197,1.242
				l5.085,15.561c0.187,0.57,0.722,0.957,1.325,0.957h2.678c0.602,0,1.137-0.385,1.324-0.953l2.733-8.287l3.099,8.336
				c0.202,0.543,0.725,0.904,1.308,0.904h2.575c0.605,0,1.142-0.387,1.327-0.96l5.052-15.56c0.137-0.422,0.062-0.883-0.199-1.241
				C93.676,95.393,93.257,95.181,92.812,95.181z"/>
			<path fill="#FFFFFF" d="M120.391,95.181h-2.812c-0.617,0-1.162,0.405-1.337,0.994l-2.338,7.895l-2.734-7.952
				c-0.192-0.56-0.723-0.937-1.319-0.937h-2.742c-0.6,0-1.131,0.379-1.321,0.944l-2.682,7.926l-2.356-7.88
				c-0.176-0.588-0.719-0.991-1.336-0.991h-2.877c-0.446,0-0.865,0.212-1.128,0.571c-0.263,0.359-0.336,0.821-0.198,1.242
				l5.086,15.561c0.186,0.57,0.721,0.957,1.325,0.957h2.677c0.603,0,1.137-0.385,1.324-0.953l2.733-8.287l3.099,8.336
				c0.202,0.543,0.724,0.904,1.308,0.904h2.576c0.604,0,1.142-0.387,1.327-0.96l5.052-15.56c0.138-0.422,0.062-0.883-0.2-1.241
				C121.254,95.393,120.835,95.181,120.391,95.181z"/>
			<path fill="#FFFFFF" d="M147.968,95.181h-2.81c-0.618,0-1.163,0.405-1.338,0.994l-2.338,7.895l-2.733-7.952
				c-0.192-0.56-0.724-0.937-1.319-0.937h-2.742c-0.6,0-1.131,0.379-1.321,0.944l-2.681,7.926l-2.357-7.88
				c-0.176-0.588-0.719-0.991-1.336-0.991h-2.876c-0.447,0-0.866,0.212-1.128,0.571c-0.264,0.359-0.338,0.821-0.198,1.242
				l5.085,15.561c0.188,0.57,0.723,0.957,1.325,0.957h2.677c0.604,0,1.137-0.385,1.325-0.953l2.733-8.287l3.099,8.336
				c0.202,0.543,0.724,0.904,1.308,0.904h2.575c0.604,0,1.142-0.387,1.327-0.96l5.052-15.56c0.138-0.422,0.062-0.883-0.2-1.241
				C148.833,95.393,148.414,95.181,147.968,95.181z"/>
			<path fill="#FFFFFF" d="M156.441,107.939c-0.649-0.646-1.481-0.987-2.406-0.987c-0.926,0-1.758,0.341-2.407,0.987
				s-0.994,1.473-0.994,2.394c0,0.935,0.365,1.772,1.056,2.418c0.668,0.629,1.479,0.962,2.347,0.962
				c0.866,0,1.677-0.333,2.346-0.961c0.69-0.648,1.056-1.485,1.056-2.419C157.436,109.413,157.093,108.586,156.441,107.939z"/>
		</g>
		<path fill="#FFFFFF" d="M160.229,129.479c-0.824,4.508,2.158,8.871,6.646,9.73c4.488,0.857,8.812-2.107,9.637-6.615
			c0.825-4.504-2.158-8.869-6.646-9.729C165.376,122.008,161.053,124.977,160.229,129.479z M173.366,131.93
			c-0.507,2.764-3.148,4.576-5.901,4.051c-2.753-0.527-4.574-3.193-4.068-5.957s3.146-4.576,5.899-4.051
			C172.05,126.499,173.871,129.168,173.366,131.93z"/>
		<path fill="#FFFFFF" d="M172.432,117.898c-0.527-0.168-1.07-0.308-1.627-0.414c-0.529-0.101-1.057-0.17-1.58-0.207
			c-1.412-3.23-2.533-5.059-2.533-5.059s-3.01-0.761-4.582,1.076c-0.272,1.891-0.406,3.777-0.428,5.646
			c-0.839,0.463-1.623,1.017-2.345,1.647c-1.744-0.692-3.567-1.321-5.474-1.871c-2.266,2.263-2.415,4.093-2.415,4.093
			s1.362,1.697,3.813,4.135c-0.14,0.47-0.255,0.951-0.345,1.441c-0.099,0.539-0.162,1.078-0.196,1.611
			c-3.158,1.371-5.037,2.453-5.037,2.453s-0.508,1.763,0.805,4.708c2.008,0.196,3.969,0.282,5.871,0.28
			c0.48,0.889,1.059,1.725,1.72,2.487c-0.694,1.782-1.325,3.652-1.87,5.606c2.266,2.292,4.087,2.453,4.087,2.453
			s1.726-1.396,4.188-3.902c0.451,0.137,0.916,0.251,1.391,0.341c0.502,0.097,1.003,0.162,1.501,0.203
			c1.41,3.255,2.526,5.197,2.526,5.197s1.757,0.522,4.68-0.777c0.186-2.045,0.258-4.043,0.238-5.981
			c0.779-0.418,1.516-0.912,2.199-1.475c1.801,0.688,3.668,1.271,5.588,1.713c2.277-0.807,2.658-3.894,2.658-3.894
			s-1.33-1.761-3.895-4.304c0.158-0.514,0.289-1.045,0.391-1.586c0.088-0.496,0.151-0.989,0.188-1.481
			c3.277-1.422,5.135-2.565,5.135-2.565s0.736-3.018-1.102-4.613c-1.91-0.291-3.819-0.438-5.705-0.469
			c-0.406-0.74-0.883-1.443-1.418-2.099c0.652-1.771,1.203-3.601,1.623-5.485c-0.817-2.295-3.894-2.697-3.894-2.697
			S174.893,115.404,172.432,117.898z M179.504,133.167c-1.128,6.164-7.04,10.222-13.18,9.047c-6.141-1.174-10.217-7.144-9.09-13.307
			c1.129-6.162,7.039-10.22,13.181-9.046C176.555,121.036,180.631,127.005,179.504,133.167z"/>
		<g>
			<path fill="#FFFFFF" d="M146.018,141.85l-0.211-0.474H52.501c-3.264,0-5.91-2.629-5.91-5.873V67.518h131.817v40.61
				c4.822,0.334,7.857,3.301,9.092,6.955V46.285c0-3.243-2.646-5.874-5.91-5.874H43.409c-3.264,0-5.909,2.63-5.909,5.874v98.253
				c0,3.244,2.646,5.873,5.909,5.873H152.66c-0.128-0.115-0.258-0.244-0.387-0.367C148.667,148.618,146.576,145.381,146.018,141.85z
				 M128.413,52.791c0-1.247,1.019-2.258,2.272-2.258h27.267c1.256,0,2.272,1.011,2.272,2.258v3.313
				c0,1.247-1.018,2.258-2.272,2.258h-27.267c-1.254,0-2.272-1.011-2.272-2.258V52.791z M46.591,52.791
				c0-1.247,1.018-2.258,2.273-2.258h68.178c1.255,0,2.272,1.011,2.272,2.258v3.313c0,1.247-1.019,2.258-2.272,2.258H48.864
				c-1.256,0-2.273-1.011-2.273-2.258V52.791z M178.787,54.689c0,2.162-1.764,3.915-3.939,3.915c-2.175,0-3.938-1.753-3.938-3.915
				c0-2.163,1.764-3.916,3.938-3.916C177.023,50.773,178.787,52.526,178.787,54.689z"/>
		</g>
	</g>
	<g enable-background="new    ">
		<path fill="#FFFFFF" d="M47.67,191.85h2.79l4.83,17.641h0.06l5.22-17.641h2.82l5.19,17.641h0.06l4.92-17.641h2.64l-6.24,21.24
			h-2.73l-5.25-18h-0.06l-5.28,18h-2.76L47.67,191.85z"/>
		<path fill="#FFFFFF" d="M89.73,210.54c-0.84,1.08-1.76,1.835-2.76,2.265c-1,0.43-2.16,0.646-3.48,0.646
			c-1.1,0-2.09-0.195-2.97-0.585c-0.88-0.391-1.625-0.915-2.235-1.575c-0.61-0.66-1.08-1.44-1.41-2.34
			c-0.33-0.9-0.495-1.86-0.495-2.88c0-1.08,0.18-2.075,0.54-2.985c0.36-0.91,0.859-1.69,1.5-2.34c0.64-0.65,1.399-1.155,2.28-1.516
			c0.88-0.359,1.84-0.54,2.88-0.54c0.98,0,1.88,0.165,2.7,0.495c0.82,0.33,1.525,0.811,2.115,1.44s1.045,1.4,1.365,2.31
			c0.32,0.91,0.48,1.945,0.48,3.105v0.75H78.9c0.04,0.6,0.185,1.175,0.435,1.725c0.25,0.551,0.574,1.03,0.975,1.44
			c0.4,0.41,0.87,0.734,1.41,0.975s1.13,0.36,1.77,0.36c1.02,0,1.88-0.181,2.58-0.54c0.7-0.36,1.33-0.89,1.89-1.59L89.73,210.54z
			 M87.72,204.81c-0.041-1.2-0.43-2.16-1.17-2.88c-0.74-0.72-1.76-1.08-3.06-1.08c-1.3,0-2.35,0.36-3.15,1.08
			c-0.8,0.72-1.28,1.68-1.44,2.88H87.72z"/>
		<path fill="#FFFFFF" d="M93.75,190.41h2.34v10.68h0.06c0.64-0.76,1.385-1.35,2.235-1.77c0.85-0.421,1.785-0.631,2.805-0.631
			c1.1,0,2.104,0.186,3.015,0.556c0.91,0.37,1.685,0.885,2.325,1.545s1.14,1.439,1.5,2.34c0.36,0.9,0.54,1.88,0.54,2.94
			c0,1.06-0.18,2.039-0.54,2.939c-0.36,0.9-0.855,1.68-1.485,2.34s-1.375,1.176-2.235,1.545c-0.86,0.37-1.78,0.556-2.76,0.556
			c-1.26,0-2.365-0.275-3.315-0.825c-0.95-0.55-1.646-1.225-2.085-2.025h-0.06v2.49h-2.34V190.41z M96.09,206.07
			c0,0.739,0.115,1.425,0.345,2.055c0.229,0.63,0.564,1.18,1.005,1.649c0.439,0.471,0.965,0.841,1.575,1.11
			c0.609,0.271,1.294,0.405,2.055,0.405c0.76,0,1.445-0.135,2.055-0.405c0.61-0.27,1.135-0.64,1.575-1.11
			c0.44-0.47,0.775-1.02,1.005-1.649c0.229-0.63,0.345-1.315,0.345-2.055c0-0.74-0.115-1.426-0.345-2.056
			c-0.23-0.63-0.565-1.18-1.005-1.649s-0.965-0.841-1.575-1.11c-0.61-0.271-1.295-0.405-2.055-0.405
			c-0.76,0-1.445,0.135-2.055,0.405c-0.61,0.27-1.136,0.641-1.575,1.11c-0.44,0.47-0.775,1.02-1.005,1.649
			C96.205,204.645,96.09,205.33,96.09,206.07z"/>
		<path fill="#FFFFFF" d="M127.859,191.85h2.371l9.029,21.24h-2.939l-2.16-5.22h-10.62l-2.19,5.22h-2.85L127.859,191.85z
			 M129,195.09h-0.061l-4.41,10.44h8.67L129,195.09z"/>
		<path fill="#FFFFFF" d="M141.54,199.05h2.34v2.04h0.06c0.641-0.76,1.385-1.35,2.235-1.77c0.851-0.421,1.785-0.631,2.806-0.631
			c1.1,0,2.104,0.186,3.015,0.556c0.909,0.37,1.685,0.885,2.325,1.545c0.64,0.66,1.14,1.439,1.5,2.34
			c0.359,0.9,0.539,1.88,0.539,2.94c0,1.06-0.18,2.039-0.539,2.939c-0.36,0.9-0.855,1.68-1.485,2.34s-1.376,1.176-2.235,1.545
			c-0.859,0.37-1.779,0.556-2.76,0.556c-1.26,0-2.365-0.275-3.314-0.825c-0.951-0.55-1.646-1.225-2.086-2.025h-0.06v9.33h-2.34
			V199.05z M143.88,206.07c0,0.739,0.114,1.425,0.345,2.055s0.564,1.18,1.006,1.649c0.439,0.471,0.965,0.841,1.574,1.11
			c0.609,0.271,1.295,0.405,2.055,0.405s1.445-0.135,2.056-0.405c0.61-0.27,1.135-0.64,1.575-1.11
			c0.439-0.47,0.774-1.02,1.005-1.649c0.229-0.63,0.345-1.315,0.345-2.055c0-0.74-0.115-1.426-0.345-2.056
			c-0.23-0.63-0.565-1.18-1.005-1.649c-0.44-0.47-0.965-0.841-1.575-1.11c-0.61-0.271-1.296-0.405-2.056-0.405
			s-1.445,0.135-2.055,0.405c-0.609,0.27-1.135,0.641-1.574,1.11c-0.441,0.47-0.775,1.02-1.006,1.649S143.88,205.33,143.88,206.07z"
			/>
		<path fill="#FFFFFF" d="M159.869,199.05h2.341v2.04h0.06c0.64-0.76,1.385-1.35,2.235-1.77c0.85-0.421,1.784-0.631,2.805-0.631
			c1.1,0,2.104,0.186,3.015,0.556s1.685,0.885,2.325,1.545c0.64,0.66,1.14,1.439,1.5,2.34s0.54,1.88,0.54,2.94
			c0,1.06-0.18,2.039-0.54,2.939s-0.854,1.68-1.485,2.34c-0.63,0.66-1.375,1.176-2.234,1.545c-0.86,0.37-1.78,0.556-2.76,0.556
			c-1.261,0-2.365-0.275-3.315-0.825s-1.646-1.225-2.085-2.025h-0.06v9.33h-2.341V199.05z M162.21,206.07
			c0,0.739,0.114,1.425,0.345,2.055c0.229,0.63,0.564,1.18,1.005,1.649c0.439,0.471,0.965,0.841,1.575,1.11
			c0.609,0.271,1.295,0.405,2.055,0.405s1.444-0.135,2.055-0.405c0.61-0.27,1.135-0.64,1.575-1.11
			c0.439-0.47,0.775-1.02,1.005-1.649c0.23-0.63,0.346-1.315,0.346-2.055c0-0.74-0.115-1.426-0.346-2.056
			c-0.229-0.63-0.565-1.18-1.005-1.649c-0.44-0.47-0.965-0.841-1.575-1.11c-0.61-0.271-1.295-0.405-2.055-0.405
			s-1.445,0.135-2.055,0.405c-0.61,0.27-1.136,0.641-1.575,1.11c-0.44,0.47-0.775,1.02-1.005,1.649
			C162.324,204.645,162.21,205.33,162.21,206.07z"/>
	</g>
</g>
</svg>
