<?xml version="1.0" encoding="utf-8"?>
<!-- Generator: Adobe Illustrator 16.0.0, SVG Export Plug-In . SVG Version: 6.00 Build 0)  -->
<!DOCTYPE svg PUBLIC "-//W3C//DTD SVG 1.1//EN" "http://www.w3.org/Graphics/SVG/1.1/DTD/svg11.dtd">
<svg version="1.1" id="Layer_1" xmlns="http://www.w3.org/2000/svg" xmlns:xlink="http://www.w3.org/1999/xlink" x="0px" y="0px"
	 width="150px" height="150px" viewBox="0 0 150 150" enable-background="new 0 0 150 150" xml:space="preserve">
<g>
	<g>
		<path fill="#FFFFFF" d="M55.312,74.77h-2.811c-0.618,0-1.162,0.405-1.338,0.994l-2.338,7.895l-2.733-7.952
			c-0.192-0.56-0.724-0.937-1.319-0.937h-2.743c-0.599,0-1.13,0.379-1.321,0.944l-2.681,7.926l-2.356-7.88
			c-0.176-0.588-0.719-0.991-1.336-0.991h-2.877c-0.447,0-0.865,0.212-1.129,0.571c-0.262,0.359-0.335,0.821-0.197,1.242
			l5.085,15.561c0.187,0.571,0.722,0.957,1.325,0.957h2.678c0.602,0,1.137-0.384,1.324-0.953l2.733-8.287l3.099,8.336
			c0.202,0.544,0.725,0.904,1.308,0.904h2.575c0.605,0,1.142-0.388,1.327-0.96l5.052-15.56c0.137-0.423,0.062-0.883-0.199-1.241
			C56.176,74.981,55.757,74.77,55.312,74.77z"/>
		<path fill="#FFFFFF" d="M82.89,74.77h-2.811c-0.617,0-1.162,0.405-1.337,0.994l-2.338,7.895l-2.734-7.952
			c-0.192-0.56-0.723-0.937-1.319-0.937h-2.742c-0.6,0-1.131,0.379-1.321,0.944l-2.682,7.926l-2.356-7.88
			c-0.176-0.588-0.719-0.991-1.336-0.991h-2.877c-0.446,0-0.865,0.212-1.128,0.571c-0.263,0.359-0.336,0.821-0.198,1.242
			l5.086,15.561c0.186,0.571,0.721,0.957,1.325,0.957h2.677c0.603,0,1.137-0.384,1.324-0.953l2.733-8.287l3.099,8.336
			c0.202,0.544,0.724,0.904,1.308,0.904h2.576c0.605,0,1.141-0.388,1.327-0.96l5.052-15.56c0.137-0.423,0.062-0.883-0.2-1.241
			C83.754,74.981,83.335,74.77,82.89,74.77z"/>
		<path fill="#FFFFFF" d="M110.468,74.77h-2.81c-0.618,0-1.163,0.405-1.337,0.994l-2.339,7.895l-2.733-7.952
			c-0.192-0.56-0.723-0.937-1.319-0.937h-2.743c-0.599,0-1.131,0.379-1.321,0.944l-2.681,7.926l-2.357-7.88
			c-0.176-0.588-0.719-0.991-1.336-0.991h-2.876c-0.447,0-0.866,0.212-1.128,0.571c-0.263,0.359-0.337,0.821-0.198,1.242
			l5.085,15.561c0.187,0.571,0.722,0.957,1.325,0.957h2.677c0.604,0,1.137-0.384,1.325-0.953l2.733-8.287l3.099,8.336
			c0.202,0.544,0.724,0.904,1.308,0.904h2.575c0.605,0,1.142-0.388,1.327-0.96l5.052-15.56c0.138-0.423,0.062-0.883-0.2-1.241
			C111.333,74.981,110.914,74.77,110.468,74.77z"/>
		<path fill="#FFFFFF" d="M118.942,87.527c-0.65-0.646-1.482-0.986-2.407-0.986c-0.926,0-1.758,0.342-2.407,0.986
			c-0.65,0.646-0.994,1.474-0.994,2.395c0,0.934,0.365,1.771,1.055,2.418c0.668,0.629,1.479,0.962,2.347,0.962
			c0.866,0,1.677-0.333,2.346-0.961c0.69-0.648,1.055-1.485,1.055-2.419C119.936,89.002,119.593,88.176,118.942,87.527z"/>
	</g>
	<path fill="#FFFFFF" d="M122.729,109.068c-0.824,4.507,2.157,8.871,6.646,9.73c4.488,0.857,8.812-2.107,9.637-6.615
		c0.825-4.504-2.158-8.869-6.646-9.729C127.876,101.597,123.553,104.564,122.729,109.068z M135.866,111.519
		c-0.506,2.763-3.148,4.576-5.901,4.05c-2.753-0.527-4.574-3.193-4.068-5.957c0.506-2.763,3.146-4.576,5.899-4.05
		C134.55,106.088,136.371,108.757,135.866,111.519z"/>
	<path fill="#FFFFFF" d="M134.931,97.488c-0.527-0.168-1.07-0.308-1.627-0.414c-0.528-0.102-1.056-0.17-1.58-0.208
		c-1.411-3.229-2.533-5.058-2.533-5.058s-3.009-0.762-4.582,1.076c-0.272,1.891-0.406,3.777-0.428,5.646
		c-0.838,0.463-1.622,1.016-2.344,1.647c-1.744-0.692-3.568-1.321-5.473-1.871c-2.267,2.263-2.416,4.093-2.416,4.093
		s1.363,1.697,3.814,4.135c-0.14,0.469-0.255,0.95-0.345,1.441c-0.099,0.539-0.162,1.078-0.197,1.611
		c-3.158,1.371-5.036,2.453-5.036,2.453s-0.508,1.763,0.805,4.708c2.007,0.196,3.968,0.282,5.87,0.28
		c0.481,0.889,1.059,1.725,1.72,2.488c-0.694,1.782-1.325,3.652-1.87,5.606c2.266,2.292,4.087,2.454,4.087,2.454
		s1.726-1.396,4.188-3.903c0.452,0.136,0.916,0.251,1.391,0.341c0.502,0.096,1.003,0.162,1.501,0.203
		c1.41,3.255,2.527,5.197,2.527,5.197s1.756,0.523,4.679-0.777c0.185-2.045,0.258-4.043,0.239-5.982
		c0.778-0.417,1.515-0.912,2.198-1.474c1.802,0.687,3.668,1.271,5.588,1.712c2.278-0.806,2.658-3.893,2.658-3.893
		s-1.33-1.76-3.894-4.304c0.159-0.513,0.289-1.044,0.39-1.586c0.089-0.495,0.152-0.989,0.188-1.481
		c3.278-1.422,5.135-2.565,5.135-2.565s0.737-3.018-1.101-4.613c-1.911-0.291-3.82-0.438-5.705-0.469
		c-0.407-0.741-0.883-1.444-1.418-2.099c0.651-1.77,1.203-3.601,1.622-5.486c-0.817-2.294-3.893-2.695-3.893-2.695
		S137.392,94.994,134.931,97.488z M142.004,112.756c-1.128,6.164-7.04,10.221-13.18,9.047s-10.217-7.143-9.089-13.307
		c1.128-6.162,7.039-10.219,13.18-9.046C139.055,100.625,143.131,106.594,142.004,112.756z"/>
	<g>
		<path fill="#FFFFFF" d="M108.517,121.438l-0.211-0.473H15.001c-3.264,0-5.91-2.629-5.91-5.873V47.106h131.817v40.61
			c4.823,0.334,7.857,3.301,9.092,6.954V25.874c0-3.243-2.646-5.874-5.91-5.874H5.909C2.646,20,0,22.63,0,25.874v98.253
			C0,127.371,2.646,130,5.909,130H115.16c-0.128-0.115-0.257-0.244-0.386-0.367C111.167,128.207,109.076,124.97,108.517,121.438z
			 M90.913,32.379c0-1.247,1.019-2.258,2.273-2.258h27.266c1.256,0,2.273,1.011,2.273,2.258v3.313c0,1.247-1.018,2.258-2.273,2.258
			H93.187c-1.255,0-2.273-1.011-2.273-2.258V32.379z M9.091,32.379c0-1.247,1.018-2.258,2.273-2.258h68.178
			c1.255,0,2.272,1.011,2.272,2.258v3.313c0,1.247-1.018,2.258-2.272,2.258H11.364c-1.256,0-2.273-1.011-2.273-2.258V32.379z
			 M141.287,34.278c0,2.162-1.764,3.915-3.939,3.915s-3.939-1.753-3.939-3.915c0-2.163,1.764-3.916,3.939-3.916
			S141.287,32.115,141.287,34.278z"/>
	</g>
</g>
</svg>
