<?xml version="1.0" encoding="utf-8"?>
<!-- Generator: Adobe Illustrator 16.0.0, SVG Export Plug-In . SVG Version: 6.00 Build 0)  -->
<!DOCTYPE svg PUBLIC "-//W3C//DTD SVG 1.1//EN" "http://www.w3.org/Graphics/SVG/1.1/DTD/svg11.dtd">
<svg version="1.1" id="Layer_1" xmlns="http://www.w3.org/2000/svg" xmlns:xlink="http://www.w3.org/1999/xlink" x="0px" y="0px"
	 width="150px" height="150px" viewBox="0 0 150 150" enable-background="new 0 0 150 150" xml:space="preserve">
<g>
	<g>
		<path fill="#FFFFFF" d="M144.09,20H5.909C2.646,20,0,22.63,0,25.874v98.254C0,127.37,2.646,130,5.909,130H144.09
			c3.264,0,5.91-2.63,5.91-5.872V25.874C150,22.63,147.354,20,144.09,20z M90.913,32.38c0-1.248,1.019-2.259,2.273-2.259h27.266
			c1.256,0,2.273,1.011,2.273,2.259v3.312c0,1.248-1.018,2.259-2.273,2.259H93.187c-1.255,0-2.273-1.011-2.273-2.259V32.38z
			 M9.091,32.38c0-1.248,1.018-2.259,2.272-2.259h68.178c1.255,0,2.272,1.011,2.272,2.259v3.312c0,1.248-1.018,2.259-2.272,2.259
			H11.364c-1.255,0-2.272-1.011-2.272-2.259V32.38z M140.908,115.093c0,3.243-2.646,5.873-5.909,5.873H15
			c-3.264,0-5.909-2.63-5.909-5.873V47.106h131.817V115.093z M140.937,34.04c0,2.162-1.764,3.915-3.939,3.915
			s-3.939-1.753-3.939-3.915s1.764-3.915,3.939-3.915S140.937,31.878,140.937,34.04z"/>
	</g>
	<g>
		<path fill="#FFFFFF" d="M55.311,74.771h-2.81c-0.618,0-1.163,0.404-1.337,0.993l-2.338,7.895l-2.733-7.952
			c-0.193-0.56-0.723-0.936-1.319-0.936h-2.743c-0.599,0-1.13,0.379-1.321,0.943l-2.681,7.927l-2.356-7.88
			c-0.176-0.588-0.719-0.99-1.336-0.99h-2.877c-0.446,0-0.865,0.212-1.128,0.57c-0.262,0.359-0.335,0.82-0.198,1.242l5.085,15.561
			c0.187,0.57,0.722,0.957,1.326,0.957h2.677c0.603,0,1.137-0.385,1.325-0.953l2.733-8.287l3.099,8.336
			c0.202,0.543,0.724,0.904,1.308,0.904h2.576c0.605,0,1.141-0.387,1.327-0.96l5.052-15.56c0.137-0.422,0.062-0.883-0.2-1.241
			S55.757,74.771,55.311,74.771z"/>
		<path fill="#FFFFFF" d="M82.89,74.771h-2.811c-0.617,0-1.162,0.404-1.337,0.993l-2.338,7.895l-2.734-7.952
			c-0.192-0.56-0.723-0.936-1.319-0.936h-2.742c-0.6,0-1.131,0.379-1.321,0.943l-2.682,7.927l-2.356-7.88
			c-0.176-0.588-0.719-0.99-1.336-0.99h-2.877c-0.446,0-0.865,0.212-1.128,0.57c-0.262,0.359-0.336,0.82-0.198,1.242l5.085,15.561
			c0.187,0.57,0.722,0.957,1.326,0.957h2.677c0.603,0,1.137-0.385,1.324-0.953l2.733-8.287l3.099,8.336
			c0.202,0.543,0.724,0.904,1.308,0.904h2.576c0.605,0,1.141-0.387,1.327-0.96l5.052-15.56c0.137-0.422,0.062-0.883-0.2-1.241
			S83.335,74.771,82.89,74.771z"/>
		<path fill="#FFFFFF" d="M110.468,74.771h-2.81c-0.618,0-1.163,0.404-1.337,0.993l-2.339,7.895l-2.733-7.952
			c-0.192-0.56-0.723-0.936-1.319-0.936h-2.743c-0.599,0-1.131,0.379-1.321,0.943l-2.681,7.927l-2.357-7.88
			c-0.176-0.588-0.719-0.99-1.336-0.99h-2.876c-0.447,0-0.866,0.212-1.128,0.57c-0.263,0.359-0.337,0.82-0.198,1.242l5.085,15.561
			c0.187,0.57,0.722,0.957,1.325,0.957h2.677c0.604,0,1.137-0.385,1.325-0.953l2.733-8.287l3.099,8.336
			c0.202,0.543,0.724,0.904,1.308,0.904h2.575c0.605,0,1.142-0.387,1.327-0.96l5.052-15.56c0.138-0.422,0.062-0.883-0.2-1.241
			C111.333,74.981,110.914,74.771,110.468,74.771z"/>
		<path fill="#FFFFFF" d="M118.942,87.528c-0.65-0.646-1.482-0.987-2.407-0.987c-0.926,0-1.758,0.341-2.407,0.987
			c-0.65,0.646-0.994,1.473-0.994,2.393c0,0.936,0.365,1.772,1.055,2.419c0.668,0.629,1.479,0.962,2.347,0.962
			c0.866,0,1.677-0.333,2.346-0.961c0.69-0.648,1.055-1.484,1.055-2.42C119.936,89.002,119.593,88.175,118.942,87.528z"/>
	</g>
</g>
</svg>
