<?xml version="1.0" encoding="utf-8"?>
<!-- Generator: Adobe Illustrator 16.0.0, SVG Export Plug-In . SVG Version: 6.00 Build 0)  -->
<!DOCTYPE svg PUBLIC "-//W3C//DTD SVG 1.1//EN" "http://www.w3.org/Graphics/SVG/1.1/DTD/svg11.dtd">
<svg version="1.1" id="Layer_1" xmlns="http://www.w3.org/2000/svg" xmlns:xlink="http://www.w3.org/1999/xlink" x="0px" y="0px"
	 width="225px" height="225px" viewBox="0 0 225 225" enable-background="new 0 0 225 225" xml:space="preserve">
<g>
	<g>
		<g>
			<path fill="#FFFFFF" d="M181.59,40.411H43.409c-3.264,0-5.909,2.63-5.909,5.874v98.254c0,3.242,2.646,5.872,5.909,5.872H181.59
				c3.264,0,5.91-2.63,5.91-5.872V46.285C187.5,43.041,184.854,40.411,181.59,40.411z M128.413,52.791
				c0-1.248,1.019-2.259,2.272-2.259h27.267c1.256,0,2.272,1.011,2.272,2.259v3.312c0,1.248-1.018,2.259-2.272,2.259h-27.267
				c-1.254,0-2.272-1.011-2.272-2.259V52.791z M46.591,52.791c0-1.248,1.018-2.259,2.272-2.259h68.178
				c1.255,0,2.271,1.011,2.271,2.259v3.312c0,1.248-1.018,2.259-2.271,2.259H48.864c-1.255,0-2.272-1.011-2.272-2.259L46.591,52.791
				L46.591,52.791z M178.408,135.504c0,3.243-2.646,5.873-5.909,5.873H52.5c-3.264,0-5.909-2.63-5.909-5.873V67.518h131.817V135.504
				z M178.438,54.451c0,2.162-1.765,3.915-3.939,3.915s-3.939-1.753-3.939-3.915c0-2.162,1.765-3.915,3.939-3.915
				S178.438,52.289,178.438,54.451z"/>
		</g>
		<g>
			<path fill="#FFFFFF" d="M92.811,95.182h-2.81c-0.618,0-1.163,0.404-1.337,0.993l-2.338,7.895l-2.733-7.952
				c-0.193-0.56-0.723-0.936-1.319-0.936h-2.743c-0.599,0-1.13,0.379-1.321,0.943l-2.681,7.927l-2.356-7.88
				c-0.176-0.588-0.719-0.99-1.336-0.99H68.96c-0.446,0-0.865,0.212-1.128,0.57c-0.262,0.359-0.335,0.82-0.198,1.242l5.085,15.561
				c0.187,0.57,0.722,0.957,1.326,0.957h2.677c0.603,0,1.137-0.385,1.325-0.953l2.733-8.287l3.099,8.336
				c0.202,0.542,0.724,0.904,1.308,0.904h2.576c0.605,0,1.141-0.387,1.327-0.96l5.052-15.56c0.137-0.422,0.062-0.883-0.2-1.241
				C93.68,95.393,93.257,95.182,92.811,95.182z"/>
			<path fill="#FFFFFF" d="M120.391,95.182h-2.812c-0.617,0-1.162,0.404-1.337,0.993l-2.338,7.895l-2.734-7.952
				c-0.192-0.56-0.723-0.936-1.319-0.936h-2.742c-0.6,0-1.131,0.379-1.321,0.943l-2.682,7.927l-2.356-7.88
				c-0.176-0.588-0.719-0.99-1.336-0.99h-2.877c-0.446,0-0.865,0.212-1.128,0.57c-0.262,0.359-0.336,0.82-0.198,1.242l5.085,15.561
				c0.187,0.57,0.722,0.957,1.326,0.957h2.677c0.603,0,1.137-0.385,1.324-0.953l2.733-8.287l3.099,8.336
				c0.202,0.542,0.724,0.904,1.308,0.904h2.576c0.604,0,1.142-0.387,1.327-0.96l5.052-15.56c0.138-0.422,0.062-0.883-0.2-1.241
				S120.835,95.182,120.391,95.182z"/>
			<path fill="#FFFFFF" d="M147.968,95.182h-2.81c-0.618,0-1.163,0.404-1.338,0.993l-2.338,7.895l-2.733-7.952
				c-0.192-0.56-0.724-0.936-1.319-0.936h-2.742c-0.6,0-1.131,0.379-1.321,0.943l-2.681,7.927l-2.357-7.88
				c-0.176-0.588-0.719-0.99-1.336-0.99h-2.876c-0.447,0-0.866,0.212-1.128,0.57c-0.264,0.359-0.338,0.82-0.198,1.242l5.085,15.561
				c0.188,0.57,0.723,0.957,1.325,0.957h2.677c0.604,0,1.137-0.385,1.325-0.953l2.733-8.287l3.099,8.336
				c0.202,0.542,0.724,0.904,1.308,0.904h2.575c0.604,0,1.142-0.387,1.327-0.96l5.052-15.56c0.138-0.422,0.062-0.883-0.2-1.241
				C148.833,95.393,148.414,95.182,147.968,95.182z"/>
			<path fill="#FFFFFF" d="M156.441,107.939c-0.649-0.646-1.481-0.987-2.406-0.987c-0.926,0-1.758,0.341-2.407,0.987
				s-0.994,1.473-0.994,2.393c0,0.936,0.365,1.772,1.056,2.419c0.668,0.629,1.479,0.962,2.347,0.962
				c0.866,0,1.677-0.333,2.346-0.961c0.69-0.648,1.056-1.484,1.056-2.42C157.436,109.413,157.093,108.586,156.441,107.939z"/>
		</g>
	</g>
	<g enable-background="new    ">
		<path fill="#FFFFFF" d="M51,191.85h2.79l4.83,17.641h0.06l5.22-17.641h2.82l5.19,17.641h0.06l4.92-17.641h2.64l-6.24,21.24h-2.73
			l-5.25-18h-0.06l-5.28,18h-2.76L51,191.85z"/>
		<path fill="#FFFFFF" d="M93.06,210.54c-0.84,1.08-1.76,1.835-2.76,2.265c-1,0.43-2.16,0.646-3.48,0.646
			c-1.1,0-2.09-0.195-2.97-0.585c-0.88-0.391-1.625-0.915-2.235-1.575c-0.61-0.66-1.08-1.44-1.41-2.34
			c-0.33-0.9-0.495-1.86-0.495-2.88c0-1.08,0.18-2.075,0.54-2.985c0.36-0.91,0.859-1.69,1.5-2.34c0.64-0.65,1.399-1.155,2.28-1.516
			c0.88-0.359,1.84-0.54,2.88-0.54c0.98,0,1.88,0.165,2.7,0.495c0.82,0.33,1.525,0.811,2.115,1.44s1.045,1.4,1.365,2.31
			c0.32,0.91,0.48,1.945,0.48,3.105v0.75H82.23c0.04,0.6,0.185,1.175,0.435,1.725c0.25,0.551,0.574,1.03,0.975,1.44
			c0.4,0.41,0.87,0.734,1.41,0.975s1.13,0.36,1.77,0.36c1.02,0,1.88-0.181,2.58-0.54c0.7-0.36,1.33-0.89,1.89-1.59L93.06,210.54z
			 M91.05,204.81c-0.041-1.2-0.43-2.16-1.17-2.88c-0.74-0.72-1.76-1.08-3.06-1.08c-1.3,0-2.35,0.36-3.15,1.08
			c-0.8,0.72-1.28,1.68-1.44,2.88H91.05z"/>
		<path fill="#FFFFFF" d="M97.081,190.41h2.34v10.68h0.06c0.64-0.76,1.385-1.35,2.235-1.77c0.85-0.421,1.785-0.631,2.805-0.631
			c1.1,0,2.104,0.186,3.015,0.556c0.91,0.37,1.685,0.885,2.325,1.545s1.14,1.439,1.5,2.34c0.36,0.9,0.54,1.88,0.54,2.94
			c0,1.06-0.18,2.039-0.54,2.939c-0.36,0.9-0.855,1.68-1.485,2.34s-1.375,1.176-2.235,1.545c-0.86,0.37-1.78,0.556-2.76,0.556
			c-1.26,0-2.365-0.275-3.315-0.825c-0.95-0.55-1.646-1.225-2.085-2.025h-0.06v2.49h-2.34V190.41z M99.42,206.07
			c0,0.739,0.115,1.425,0.345,2.055c0.229,0.63,0.564,1.18,1.005,1.649c0.439,0.471,0.965,0.841,1.575,1.11
			c0.609,0.271,1.294,0.405,2.055,0.405c0.76,0,1.445-0.135,2.055-0.405c0.61-0.27,1.135-0.64,1.575-1.11
			c0.44-0.47,0.775-1.02,1.005-1.649c0.229-0.63,0.345-1.315,0.345-2.055c0-0.74-0.115-1.426-0.345-2.056
			c-0.23-0.63-0.565-1.18-1.005-1.649s-0.965-0.841-1.575-1.11c-0.61-0.271-1.295-0.405-2.055-0.405
			c-0.76,0-1.445,0.135-2.055,0.405c-0.61,0.27-1.136,0.641-1.575,1.11c-0.44,0.47-0.775,1.02-1.005,1.649
			C99.535,204.645,99.42,205.33,99.42,206.07z"/>
		<path fill="#FFFFFF" d="M134.37,195.6c-0.421-0.68-0.98-1.175-1.681-1.484c-0.699-0.311-1.43-0.466-2.189-0.466
			c-0.561,0-1.109,0.07-1.65,0.21c-0.539,0.141-1.025,0.351-1.455,0.631s-0.775,0.649-1.035,1.109c-0.26,0.461-0.39,1.001-0.39,1.62
			c0,0.48,0.075,0.905,0.226,1.275c0.149,0.37,0.395,0.705,0.734,1.005s0.8,0.58,1.381,0.84c0.579,0.26,1.289,0.521,2.129,0.78
			c0.82,0.26,1.615,0.54,2.385,0.84c0.771,0.3,1.451,0.68,2.041,1.14c0.59,0.461,1.06,1.035,1.41,1.726
			c0.35,0.689,0.524,1.555,0.524,2.595c0,1.061-0.21,1.979-0.63,2.76s-0.975,1.425-1.665,1.936c-0.69,0.51-1.485,0.89-2.385,1.14
			c-0.9,0.25-1.83,0.375-2.79,0.375c-0.62,0-1.24-0.056-1.86-0.165c-0.62-0.11-1.215-0.28-1.784-0.51
			c-0.57-0.229-1.105-0.53-1.605-0.9s-0.93-0.825-1.29-1.365l2.159-1.77c0.461,0.78,1.101,1.37,1.921,1.77
			c0.819,0.4,1.689,0.601,2.61,0.601c0.539,0,1.084-0.08,1.635-0.24c0.549-0.16,1.045-0.395,1.484-0.705
			c0.439-0.31,0.8-0.694,1.08-1.155c0.28-0.459,0.42-0.989,0.42-1.59c0-0.66-0.109-1.194-0.33-1.604
			c-0.22-0.41-0.56-0.766-1.02-1.065c-0.461-0.3-1.04-0.57-1.74-0.81c-0.7-0.24-1.52-0.521-2.46-0.84
			c-0.761-0.24-1.46-0.515-2.101-0.825c-0.64-0.311-1.195-0.69-1.664-1.141c-0.471-0.449-0.84-0.989-1.11-1.619
			c-0.271-0.631-0.405-1.385-0.405-2.266c0-1.02,0.2-1.909,0.601-2.67c0.399-0.76,0.939-1.395,1.62-1.905
			c0.68-0.51,1.449-0.895,2.31-1.154s1.76-0.391,2.7-0.391c1.199,0,2.295,0.186,3.285,0.556s1.875,1.015,2.654,1.935L134.37,195.6z"
			/>
		<path fill="#FFFFFF" d="M140.221,193.56c0-0.46,0.164-0.859,0.494-1.2c0.33-0.34,0.735-0.51,1.215-0.51
			c0.48,0,0.885,0.17,1.215,0.51c0.33,0.341,0.496,0.74,0.496,1.2c0,0.5-0.16,0.91-0.48,1.23s-0.73,0.479-1.23,0.479
			s-0.91-0.159-1.229-0.479C140.38,194.47,140.221,194.06,140.221,193.56z M140.76,199.05h2.34v14.04h-2.34V199.05z"/>
		<path fill="#FFFFFF" d="M155.43,201.03h-4.141v7.02c0,0.46,0.011,0.885,0.031,1.275c0.02,0.39,0.1,0.729,0.239,1.02
			s0.351,0.521,0.63,0.69c0.28,0.17,0.68,0.255,1.2,0.255c0.34,0,0.69-0.04,1.05-0.12c0.36-0.08,0.7-0.2,1.021-0.36l0.09,2.13
			c-0.4,0.181-0.845,0.311-1.335,0.391c-0.49,0.079-0.955,0.12-1.395,0.12c-0.84,0-1.511-0.11-2.011-0.33s-0.89-0.53-1.17-0.931
			c-0.28-0.399-0.465-0.895-0.555-1.484c-0.091-0.59-0.136-1.245-0.136-1.965v-7.71h-3.06v-1.98h3.06v-3.99h2.34v3.99h4.141V201.03z
			"/>
		<path fill="#FFFFFF" d="M170.85,210.54c-0.84,1.08-1.76,1.835-2.76,2.265s-2.16,0.646-3.48,0.646c-1.1,0-2.09-0.195-2.971-0.585
			c-0.879-0.391-1.625-0.915-2.234-1.575c-0.61-0.66-1.08-1.44-1.41-2.34c-0.33-0.9-0.494-1.86-0.494-2.88
			c0-1.08,0.18-2.075,0.539-2.985c0.36-0.91,0.859-1.69,1.5-2.34c0.641-0.65,1.4-1.155,2.28-1.516c0.88-0.359,1.84-0.54,2.88-0.54
			c0.98,0,1.879,0.165,2.699,0.495s1.525,0.811,2.115,1.44s1.045,1.4,1.365,2.31c0.32,0.91,0.48,1.945,0.48,3.105v0.75h-11.34
			c0.039,0.6,0.185,1.175,0.436,1.725c0.249,0.551,0.574,1.03,0.975,1.44c0.399,0.41,0.869,0.734,1.41,0.975
			c0.539,0.24,1.129,0.36,1.77,0.36c1.02,0,1.879-0.181,2.58-0.54c0.699-0.36,1.33-0.89,1.891-1.59L170.85,210.54z M168.84,204.81
			c-0.041-1.2-0.432-2.16-1.17-2.88c-0.74-0.72-1.76-1.08-3.061-1.08s-2.35,0.36-3.15,1.08c-0.8,0.72-1.279,1.68-1.439,2.88H168.84z
			"/>
	</g>
</g>
</svg>
